<svg width="250" height="293" viewBox="0 0 250 293" fill="none" xmlns="http://www.w3.org/2000/svg">
<path fill-rule="evenodd" clip-rule="evenodd" d="M66.2685 281.252C66.2685 287.589 92.1385 292.729 124.053 292.729C155.968 292.729 181.839 287.589 181.839 281.252C181.839 274.911 155.968 269.774 124.053 269.774C92.1385 269.774 66.2685 274.911 66.2685 281.252Z" fill="#F25A2B"/>
<path fill-rule="evenodd" clip-rule="evenodd" d="M156.917 283.61C158.201 283.61 158.785 283.368 159.01 282.871C159.361 282.103 158.523 281.4 158.208 281.134C155.258 278.653 147.012 276.264 146.662 276.165C146.335 276.068 146.008 276.258 145.917 276.581C145.825 276.902 146.011 277.239 146.33 277.329C146.414 277.354 154.68 279.747 157.434 282.064C157.577 282.184 157.676 282.282 157.745 282.355C156.37 282.637 151.031 281.746 147.057 281.079L146.595 281.002C144.566 280.661 143.306 280.064 143.135 279.366C142.944 278.584 144.046 277.536 144.448 277.231C144.522 277.176 144.583 277.103 144.624 277.019C155.514 255.099 142.294 236.531 142.159 236.346C141.963 236.075 141.586 236.019 141.317 236.216C141.049 236.414 140.99 236.793 141.187 237.064C141.317 237.243 154.051 255.167 143.607 276.354C143.129 276.743 141.595 278.13 141.963 279.654C142.27 280.916 143.719 281.749 146.397 282.197L146.858 282.275C152.103 283.155 155.164 283.61 156.917 283.61Z" fill="#040606"/>
<path fill-rule="evenodd" clip-rule="evenodd" d="M92.3001 283.61C94.0534 283.61 97.1161 283.155 102.362 282.275L102.822 282.197C105.498 281.749 106.95 280.916 107.256 279.654C107.624 278.13 106.09 276.743 105.612 276.354C95.1681 255.167 107.902 237.243 108.032 237.064C108.228 236.793 108.17 236.414 107.902 236.216C107.632 236.017 107.256 236.077 107.06 236.346C106.925 236.531 93.7052 255.099 104.595 277.019C104.636 277.103 104.697 277.176 104.771 277.231C105.173 277.536 106.275 278.584 106.084 279.366C105.913 280.064 104.653 280.661 102.623 281.002L102.163 281.079C98.1898 281.746 92.8415 282.643 91.4744 282.355C91.5428 282.282 91.6401 282.185 91.7831 282.066C94.537 279.747 102.803 277.354 102.887 277.329C103.208 277.239 103.394 276.902 103.301 276.581C103.21 276.258 102.875 276.071 102.557 276.165C102.206 276.264 93.9607 278.653 91.0106 281.135C90.6943 281.4 89.8564 282.102 90.2077 282.871C90.4342 283.368 91.0182 283.61 92.3001 283.61Z" fill="#040606"/>
<path fill-rule="evenodd" clip-rule="evenodd" d="M210.975 151.933C210.975 151.933 197.134 226.999 191.106 231.853C185.078 236.705 171.814 241.559 132.027 241.559C92.2397 241.559 64.5085 242.773 58.4804 234.279C52.4524 225.785 39.1631 167.867 40.3812 151.933C41.6008 135.998 166.942 127.827 210.975 151.933Z" fill="#5849BE"/>
<path fill-rule="evenodd" clip-rule="evenodd" d="M244.925 154.013C245.992 154.013 247.119 153.483 247.947 152.539C248.714 151.663 250.269 149.167 248.144 144.889C247.052 142.693 245.662 141.331 244.013 140.844C242.023 140.258 240.412 141.195 240.343 141.238L240.959 142.28L240.65 141.758L240.956 142.281C240.97 142.272 242.207 141.564 243.692 142.013C244.999 142.407 246.134 143.558 247.066 145.434C248.862 149.049 247.649 151.047 247.043 151.735C246.283 152.602 245.167 152.995 244.329 152.701L243.927 153.846C244.247 153.958 244.583 154.013 244.925 154.013Z" fill="#F25A2B"/>
<path fill-rule="evenodd" clip-rule="evenodd" d="M201.499 196.438C208.5 196.438 220.384 194.808 227.81 184.882C238.969 169.962 238.079 152.588 238.069 152.414L238.052 152.146L237.843 151.976C237.808 151.948 234.326 149.1 234.375 146.119C234.396 144.86 235.07 143.72 236.379 142.731C237.865 141.611 239.201 141.458 240.356 142.284C241.942 143.418 242.602 145.957 242.255 147.048C242.121 147.471 241.913 147.471 241.812 147.471L241.545 147.533C241.303 147.653 239.144 148.635 238.006 146.347L236.928 146.889C238.242 149.536 240.725 149.24 241.96 148.678C242.644 148.621 243.164 148.168 243.403 147.418C243.934 145.744 243.024 142.705 241.055 141.296C240.14 140.637 238.219 139.825 235.657 141.759C234.031 142.987 233.195 144.447 233.169 146.102C233.12 149.235 236.038 152.013 236.875 152.741C236.937 154.922 236.999 170.577 226.846 184.153C216.3 198.251 196.234 194.889 196.034 194.854L195.824 196.049C195.892 196.061 198.131 196.438 201.499 196.438Z" fill="#F25A2B"/>
<path fill-rule="evenodd" clip-rule="evenodd" d="M46.7183 196.128C50.0881 196.128 52.3266 195.752 52.395 195.74L52.1852 194.544C51.9814 194.58 31.922 197.943 21.3714 183.844C11.2193 170.268 11.2832 154.613 11.3455 152.432C12.1804 151.704 15.0971 148.926 15.0484 145.793C15.0241 144.137 14.1862 142.677 12.5621 141.45C9.99974 139.517 8.08061 140.33 7.16516 140.986C5.19587 142.396 4.285 145.435 4.81572 147.109C5.05447 147.859 5.57603 148.312 6.25882 148.369C7.49666 148.93 9.97694 149.226 11.2923 146.581L10.2141 146.037C9.07515 148.328 6.91729 147.343 6.67398 147.224L6.40788 147.161C6.30599 147.161 6.09763 147.161 5.96533 146.739C5.61862 145.648 6.2771 143.109 7.86318 141.975C9.01738 141.149 10.3525 141.302 11.8382 142.422C13.1491 143.412 13.8242 144.552 13.8425 145.813C13.8912 148.802 10.4103 151.639 10.3753 151.667L10.167 151.837L10.1518 152.104C10.1412 152.279 9.25001 169.653 20.4103 184.573C27.8328 194.499 39.7186 196.128 46.7183 196.128Z" fill="#F25A2B"/>
<path fill-rule="evenodd" clip-rule="evenodd" d="M4.29323 154.013C4.63387 154.013 4.97146 153.958 5.28928 153.846L4.88781 152.701C4.04839 152.995 2.93373 152.603 2.1749 151.737C1.56967 151.047 0.356185 149.049 2.15212 145.434C3.0843 143.558 4.21871 142.407 5.52499 142.013C7.00918 141.565 8.24856 142.274 8.26072 142.281L8.87354 141.238C8.80815 141.195 7.1947 140.258 5.20412 140.844C3.55418 141.331 2.16426 142.693 1.07393 144.889C-1.052 149.167 0.505186 151.665 1.27009 152.539C2.09735 153.483 3.22571 154.013 4.29323 154.013Z" fill="#F25A2B"/>
<path fill-rule="evenodd" clip-rule="evenodd" d="M182.8 151.087C180.978 174.446 177.601 197.679 172.693 220.585C171.308 227.051 169.8 233.491 168.175 239.9C167.984 240.656 166.822 240.336 167.014 239.577C172.747 216.943 177.008 193.932 179.695 170.732C180.452 164.197 181.083 157.646 181.596 151.087C181.655 150.312 182.862 150.306 182.8 151.087Z" fill="#ECECEC"/>
<path fill-rule="evenodd" clip-rule="evenodd" d="M145.018 151.309C143.745 174.739 141.12 198.066 138.195 221.337C137.373 227.879 136.528 234.417 135.681 240.956C135.582 241.72 134.375 241.73 134.475 240.956C137.487 217.687 140.497 194.407 142.446 171.018C142.994 164.456 143.455 157.885 143.812 151.309C143.855 150.531 145.061 150.527 145.018 151.309Z" fill="#ECECEC"/>
<path fill-rule="evenodd" clip-rule="evenodd" d="M92.5362 151.105C95.2825 174.482 98.0289 197.861 100.775 221.239C101.548 227.81 102.32 234.381 103.091 240.953C103.183 241.727 101.977 241.72 101.887 240.953C99.139 217.573 96.3926 194.196 93.6463 170.818C92.8753 164.247 92.1028 157.677 91.3302 151.105C91.2405 150.331 92.4464 150.337 92.5362 151.105Z" fill="#ECECEC"/>
<path fill-rule="evenodd" clip-rule="evenodd" d="M53.8374 151.509C57.8003 174.57 62.5388 197.495 68.0467 220.235C69.613 226.697 71.2402 233.145 72.9281 239.577C73.1258 240.334 71.964 240.654 71.7648 239.9C65.8235 217.243 60.6303 194.387 56.2234 171.376C54.9779 164.874 53.7948 158.358 52.6741 151.831C52.5433 151.067 53.7051 150.739 53.8374 151.509Z" fill="#ECECEC"/>
<path fill-rule="evenodd" clip-rule="evenodd" d="M220.042 146.918C233.54 137.863 234.512 112.943 222.454 99.5963C210.397 86.25 205.575 83.8229 195.929 80.1821C203.164 69.2615 203.164 55.9152 192.313 49.8488C181.461 43.7825 153.73 36.501 153.73 36.501C153.73 36.501 151.318 25.5803 138.056 25.5803C124.794 25.5803 88.623 21.9411 83.8009 6.16771C78.9773 -9.60572 74.1552 11.022 75.3596 17.0884C70.5375 23.1532 66.9198 36.501 77.7714 42.5689C70.5375 43.7825 45.7564 48.8817 53.927 73.6322C53.927 73.6322 17.4883 81.3957 22.3104 116.583C18.6926 123.863 23.5147 154.197 45.218 154.197C66.9198 154.197 65.7139 152.983 75.3596 155.41C85.0068 157.837 116.354 166.331 158.553 161.476C200.753 156.624 209.191 154.197 220.042 146.918Z" fill="#FFDADD"/>
<path fill-rule="evenodd" clip-rule="evenodd" d="M200.255 103.676C195.632 99.8468 190.763 96.3327 185.686 93.1385C184.209 92.2095 185.57 89.8464 187.056 90.78C192.328 94.0982 197.374 97.7668 202.173 101.746C202.739 102.215 202.656 103.189 202.173 103.676C201.613 104.239 200.822 104.146 200.255 103.676Z" fill="#F25A2B"/>
<path fill-rule="evenodd" clip-rule="evenodd" d="M144.625 68.6557C145.577 74.0379 146.53 79.4218 147.482 84.8056C147.61 85.5294 147.286 86.2762 146.535 86.4844C145.879 86.6649 144.996 86.2609 144.867 85.531C143.915 80.1487 142.961 74.7649 142.009 69.3826C141.881 68.6572 142.204 67.9119 142.957 67.7023C143.612 67.5217 144.497 67.9257 144.625 68.6557Z" fill="#F25A2B"/>
<path fill-rule="evenodd" clip-rule="evenodd" d="M153.034 44.3365C148.904 46.3079 145.031 48.798 141.553 51.7856C140.996 52.2646 140.183 52.3366 139.635 51.7856C139.149 51.2958 139.076 50.3362 139.635 49.8571C143.291 46.715 147.321 44.0534 151.664 41.978C152.326 41.6627 153.128 41.7944 153.521 42.4693C153.866 43.0632 153.699 44.0182 153.034 44.3365Z" fill="#F25A2B"/>
<path fill-rule="evenodd" clip-rule="evenodd" d="M159.601 106.731C154.883 110.141 150.165 113.553 145.448 116.963C144.851 117.395 143.936 117.069 143.591 116.475C143.192 115.788 143.481 115.039 144.077 114.606C148.796 111.196 153.513 107.783 158.232 104.373C158.827 103.943 159.742 104.267 160.087 104.863C160.487 105.55 160.198 106.3 159.601 106.731Z" fill="#F25A2B"/>
<path fill-rule="evenodd" clip-rule="evenodd" d="M202.115 125.604C199.508 128.501 196.759 131.251 193.904 133.901C193.381 134.384 192.495 134.458 191.985 133.901C191.505 133.372 191.429 132.486 191.985 131.969C194.84 129.321 197.591 126.571 200.197 123.674C200.674 123.143 201.636 123.149 202.115 123.674C202.632 124.24 202.624 125.039 202.115 125.604Z" fill="#F25A2B"/>
<path fill-rule="evenodd" clip-rule="evenodd" d="M173.57 135.768C173.383 135.791 173.374 135.877 173.556 135.659C174.104 136.374 174.653 137.089 175.2 137.802C170.912 140.357 166.623 142.909 162.336 145.464C161.987 144.633 161.638 143.8 161.29 142.969C161.67 142.856 162.052 142.743 162.432 142.629C164.11 142.13 164.827 144.764 163.155 145.263C162.773 145.377 162.393 145.488 162.013 145.602C160.528 146.044 159.649 143.892 160.968 143.107C165.255 140.553 169.543 138 173.831 135.445C175.218 134.619 176.436 136.448 175.475 137.589C174.975 138.183 174.312 138.413 173.57 138.5C172.841 138.584 172.213 137.81 172.213 137.133C172.213 136.325 172.838 135.854 173.57 135.768Z" fill="#F25A2B"/>
<path fill-rule="evenodd" clip-rule="evenodd" d="M139.769 142.584C135.943 145.171 132.115 147.757 128.288 150.344C127.68 150.754 126.785 150.462 126.433 149.854C126.042 149.182 126.309 148.397 126.918 147.987C130.747 145.399 134.573 142.814 138.4 140.226C139.009 139.815 139.903 140.108 140.256 140.717C140.647 141.387 140.379 142.172 139.769 142.584Z" fill="#F25A2B"/>
<path fill-rule="evenodd" clip-rule="evenodd" d="M111.853 116.904C109.533 113.092 106.596 109.713 103.176 106.857C102.612 106.385 102.693 105.412 103.176 104.925C103.734 104.363 104.53 104.452 105.095 104.925C108.684 107.923 111.76 111.526 114.197 115.527C115.112 117.03 112.766 118.403 111.853 116.904Z" fill="#F25A2B"/>
<path fill-rule="evenodd" clip-rule="evenodd" d="M88.9244 76.976C88.2812 80.3278 87.9771 83.7287 87.9832 87.1417C87.9862 88.8972 85.2733 88.9003 85.2703 87.1417C85.2642 83.4853 85.6215 79.8396 86.3089 76.2505C86.4472 75.5251 87.311 75.1133 87.9771 75.297C88.7298 75.5036 89.0643 76.2505 88.9244 76.976Z" fill="#F25A2B"/>
<path fill-rule="evenodd" clip-rule="evenodd" d="M102.21 42.5662C101.334 42.8677 100.848 43.0682 100.037 43.4753C99.2722 43.861 98.5316 44.2942 97.8214 44.7732C97.0854 45.2722 96.6763 45.589 96.0087 46.1798C95.3503 46.766 94.7329 47.3965 94.155 48.0638C93.6867 48.6026 92.7089 48.5811 92.2375 48.0638C91.7113 47.4883 91.7387 46.7078 92.2375 46.1323C94.7116 43.2779 97.9339 41.155 101.491 39.9337C102.161 39.7026 103.002 40.1985 103.158 40.8872C103.331 41.6448 102.931 42.3198 102.21 42.5662Z" fill="#F25A2B"/>
<path fill-rule="evenodd" clip-rule="evenodd" d="M72.6908 76.1023C68.6184 78.3032 64.911 81.0827 61.6598 84.3901C60.4311 85.6421 58.5135 83.7106 59.7437 82.4586C63.1439 78.9981 67.0597 76.0473 71.3222 73.7454C72.8612 72.9143 74.2328 75.2713 72.6908 76.1023Z" fill="#F25A2B"/>
<path fill-rule="evenodd" clip-rule="evenodd" d="M46.8109 122.769C48.5825 126.727 50.3541 130.687 52.1257 134.645C52.4268 135.316 52.3188 136.114 51.6406 136.513C51.0597 136.855 50.0849 136.698 49.7838 136.022C48.0122 132.064 46.2406 128.106 44.469 124.148C44.1664 123.475 44.2759 122.679 44.9556 122.279C45.535 121.937 46.5098 122.094 46.8109 122.769Z" fill="#F25A2B"/>
<path fill-rule="evenodd" clip-rule="evenodd" d="M77.037 135.817C80.305 138.157 83.6535 140.384 87.0735 142.495C87.697 142.88 87.9373 143.718 87.5617 144.363C87.1952 144.991 86.3314 145.24 85.7049 144.853C82.2849 142.743 78.9363 140.514 75.6669 138.174C75.0708 137.745 74.7864 136.982 75.1802 136.305C75.5254 135.711 76.4363 135.385 77.037 135.817Z" fill="#F25A2B"/>
<path fill-rule="evenodd" clip-rule="evenodd" d="M38.3109 101.857C36.8754 103.992 35.4368 106.127 34.0013 108.264C33.6029 108.853 32.7893 109.171 32.1445 108.752C31.5606 108.374 31.2336 107.517 31.6579 106.885C33.0949 104.75 34.532 102.613 35.969 100.479C36.3659 99.8886 37.181 99.5702 37.8258 99.9896C38.4082 100.369 38.7367 101.225 38.3109 101.857Z" fill="#F25A2B"/>
<path fill-rule="evenodd" clip-rule="evenodd" d="M29.8431 136.1C30.5594 137.423 31.2771 138.747 31.9934 140.067C32.3446 140.718 32.6959 141.368 33.0487 142.016C33.2236 142.342 33.4 142.666 33.5764 142.991C33.6631 143.154 33.7528 143.317 33.8395 143.477C33.8912 143.571 33.9414 143.664 33.99 143.756C34.1162 143.956 34.0402 143.881 33.7634 143.537C33.5353 143.474 33.3072 143.413 33.0776 143.35C33.108 143.35 33.1369 143.353 33.1673 143.355C32.9392 143.416 32.7111 143.479 32.483 143.542C32.5013 143.533 32.518 143.523 32.5362 143.514C32.3735 143.676 32.2108 143.842 32.0496 144.004C32.0587 143.987 32.0663 143.97 32.0755 143.953C32.0146 144.181 31.9523 144.413 31.8915 144.642C31.9401 144.817 31.9918 144.99 32.0405 145.164C32.2032 145.328 32.3659 145.49 32.5271 145.652C32.5134 145.646 32.5012 145.642 32.4876 145.635C32.9453 145.635 33.4 145.635 33.8562 145.635C33.841 145.643 33.8258 145.649 33.8106 145.655C33.1643 145.949 32.3203 145.865 31.9538 145.167C31.6406 144.569 31.75 143.612 32.4404 143.298C32.9194 143.081 33.3985 143.009 33.8775 143.286C34.2135 143.48 34.4721 143.836 34.5603 144.218C34.7732 145.141 34.1299 146.053 33.1673 146.085C32.3461 146.113 31.8519 145.51 31.4976 144.856C31.2345 144.37 30.9699 143.881 30.7069 143.395C29.6378 141.423 28.5703 139.451 27.5012 137.479C27.1621 136.852 27.3279 135.961 27.9879 135.611C28.622 135.274 29.4812 135.431 29.8431 136.1Z" fill="#F25A2B"/>
<path fill-rule="evenodd" clip-rule="evenodd" d="M181.559 65.2765C179.462 68.1371 177.488 71.0879 175.639 74.1168C175.257 74.7443 174.426 74.9862 173.784 74.6081C173.16 74.2393 172.914 73.3699 173.297 72.7393C175.145 69.7089 177.12 66.7596 179.217 63.8975C179.651 63.3052 180.393 63.0068 181.072 63.4078C181.653 63.7506 181.997 64.6781 181.559 65.2765Z" fill="#F25A2B"/>
<path fill-rule="evenodd" clip-rule="evenodd" d="M159.665 207.572C163.319 205.948 164.973 201.649 163.36 197.971C161.747 194.293 157.475 192.628 153.821 194.251C150.167 195.876 148.512 200.174 150.125 203.853C151.739 207.531 156.01 209.198 159.665 207.572Z" fill="#F25A2B"/>
<path fill-rule="evenodd" clip-rule="evenodd" d="M142.845 200.353C145.56 198.422 146.787 193.314 145.59 188.943C144.39 184.575 141.22 182.596 138.505 184.524C135.791 186.455 134.562 191.56 135.761 195.931C136.96 200.302 140.131 202.279 142.845 200.353Z" fill="#040606"/>
<path fill-rule="evenodd" clip-rule="evenodd" d="M102.648 200.353C104.819 198.422 105.802 193.314 104.843 188.943C103.885 184.575 101.347 182.596 99.1752 184.524C97.0034 186.455 96.0214 191.56 96.9808 195.931C97.9403 200.302 100.477 202.279 102.648 200.353Z" fill="#040606"/>
<path fill-rule="evenodd" clip-rule="evenodd" d="M86.0328 206.481C89.6871 204.857 91.3416 200.558 89.7282 196.88C88.1147 193.203 83.8431 191.537 80.1889 193.16C76.5346 194.785 74.8801 199.083 76.4921 202.762C78.107 206.44 82.3771 208.105 86.0328 206.481Z" fill="#F25A2B"/>
<path d="M98.7611 207.579H139.599C137.743 213.448 131.06 225.537 119.18 226.946C107.3 228.354 100.617 214.622 98.7611 207.579Z" fill="#ECECEC"/>
</svg>
