<svg width="279" height="460" viewBox="0 0 279 460" fill="none" xmlns="http://www.w3.org/2000/svg">
<mask id="path-1-inside-1_1_35" fill="white">
<path d="M243.659 255.531C199.255 223.174 179.837 164.296 179.802 112.291C179.8 107.181 180.034 101.839 182.614 97.395C184.042 94.9339 186.487 92.7178 189.384 92.7386C191.411 92.7548 193.24 93.8501 194.954 94.9085C198.971 97.395 202.988 99.8814 207.008 102.366C208.842 103.5 210.964 104.683 213.061 104.133C216.99 103.103 216.891 97.6469 215.766 93.8317C207.706 66.5151 191.562 41.5209 169.784 22.6482C164.983 18.4864 105.361 -26.7068 46.6409 24.0995C13.0269 53.1815 9.31519 102.185 11.3084 142.757C14.4212 206.093 30.4186 269.581 63.8905 323.923C76.1904 343.893 91.3427 363.022 112.048 374.616C117.072 377.428 123.333 379.771 128.472 377.165C133.024 374.854 134.941 369.44 135.342 364.444C135.742 359.45 135.057 354.343 136.272 349.476C137.486 344.61 141.43 339.815 146.56 339.833C158.93 339.879 163.227 354.879 168.733 365.694C172.021 372.148 175.203 378.653 178.273 385.207C186.428 402.61 193.986 420.63 206.482 435.375C218.979 450.121 237.642 461.367 257.185 459.865C260.061 459.644 263.127 459.05 265.132 457.023C267.044 455.091 267.603 452.21 267.444 449.527C267.002 441.986 261.813 435.618 256.792 429.871C246.445 418.027 235.719 406.339 227.718 392.876C219.717 379.411 214.536 363.796 216.384 348.335C216.704 345.675 217.315 342.865 219.256 340.97C221.666 338.615 225.638 338.326 228.805 339.56C231.975 340.792 234.453 343.283 236.512 345.938C244.438 356.157 248.138 370.228 259.526 376.612C264.182 379.224 270.439 380.039 274.728 376.883C280.613 372.55 279.683 363.519 276.347 357.102C265.461 336.154 237.909 327.581 226.611 306.841C223.211 300.602 222.532 291.113 229.075 288.086C235.08 285.311 241.732 290.476 245.64 295.721C249.549 300.965 253.656 307.324 260.262 307.999C264.388 308.419 268.495 306.284 271.128 303.155C277.836 295.185 275.053 282.73 268.394 274.72C261.732 266.711 252.126 261.703 243.659 255.531Z"/>
</mask>
<path d="M243.659 255.531C199.255 223.174 179.837 164.296 179.802 112.291C179.8 107.181 180.034 101.839 182.614 97.395C184.042 94.9339 186.487 92.7178 189.384 92.7386C191.411 92.7548 193.24 93.8501 194.954 94.9085C198.971 97.395 202.988 99.8814 207.008 102.366C208.842 103.5 210.964 104.683 213.061 104.133C216.99 103.103 216.891 97.6469 215.766 93.8317C207.706 66.5151 191.562 41.5209 169.784 22.6482C164.983 18.4864 105.361 -26.7068 46.6409 24.0995C13.0269 53.1815 9.31519 102.185 11.3084 142.757C14.4212 206.093 30.4186 269.581 63.8905 323.923C76.1904 343.893 91.3427 363.022 112.048 374.616C117.072 377.428 123.333 379.771 128.472 377.165C133.024 374.854 134.941 369.44 135.342 364.444C135.742 359.45 135.057 354.343 136.272 349.476C137.486 344.61 141.43 339.815 146.56 339.833C158.93 339.879 163.227 354.879 168.733 365.694C172.021 372.148 175.203 378.653 178.273 385.207C186.428 402.61 193.986 420.63 206.482 435.375C218.979 450.121 237.642 461.367 257.185 459.865C260.061 459.644 263.127 459.05 265.132 457.023C267.044 455.091 267.603 452.21 267.444 449.527C267.002 441.986 261.813 435.618 256.792 429.871C246.445 418.027 235.719 406.339 227.718 392.876C219.717 379.411 214.536 363.796 216.384 348.335C216.704 345.675 217.315 342.865 219.256 340.97C221.666 338.615 225.638 338.326 228.805 339.56C231.975 340.792 234.453 343.283 236.512 345.938C244.438 356.157 248.138 370.228 259.526 376.612C264.182 379.224 270.439 380.039 274.728 376.883C280.613 372.55 279.683 363.519 276.347 357.102C265.461 336.154 237.909 327.581 226.611 306.841C223.211 300.602 222.532 291.113 229.075 288.086C235.08 285.311 241.732 290.476 245.64 295.721C249.549 300.965 253.656 307.324 260.262 307.999C264.388 308.419 268.495 306.284 271.128 303.155C277.836 295.185 275.053 282.73 268.394 274.72C261.732 266.711 252.126 261.703 243.659 255.531Z" fill="#EAE7FD"/>
<path d="M179.802 112.291L178.802 112.291V112.291L179.802 112.291ZM182.614 97.395L183.479 97.8967L183.479 97.8971L182.614 97.395ZM189.384 92.7386L189.391 91.7387H189.392L189.384 92.7386ZM194.954 94.9085L195.48 94.0576L195.481 94.0582L194.954 94.9085ZM207.008 102.366L207.534 101.515L207.534 101.515L207.008 102.366ZM213.061 104.133L213.315 105.101H213.314L213.061 104.133ZM215.766 93.8317L216.726 93.5486L216.726 93.549L215.766 93.8317ZM169.784 22.6482L169.129 23.4039L169.129 23.4038L169.784 22.6482ZM46.6409 24.0995L47.2952 24.8557H47.2952L46.6409 24.0995ZM11.3084 142.757L10.3096 142.806L10.3096 142.806L11.3084 142.757ZM63.8905 323.923L64.742 323.398L64.742 323.398L63.8905 323.923ZM112.048 374.616L111.56 375.488L111.56 375.488L112.048 374.616ZM128.472 377.165L128.925 378.056L128.924 378.057L128.472 377.165ZM135.342 364.444L134.345 364.364V364.364L135.342 364.444ZM146.56 339.833L146.563 338.833L146.563 338.833L146.56 339.833ZM168.733 365.694L167.842 366.148L167.842 366.147L168.733 365.694ZM178.273 385.207L177.367 385.631L177.367 385.631L178.273 385.207ZM257.185 459.865L257.262 460.862L257.262 460.862L257.185 459.865ZM265.132 457.023L264.421 456.32L264.421 456.319L265.132 457.023ZM267.444 449.527L266.446 449.586L266.446 449.585L267.444 449.527ZM256.792 429.871L257.545 429.213L257.545 429.213L256.792 429.871ZM227.718 392.876L226.859 393.387L226.859 393.387L227.718 392.876ZM216.384 348.335L215.391 348.216L215.392 348.215L216.384 348.335ZM219.256 340.97L219.955 341.685L219.954 341.686L219.256 340.97ZM228.805 339.56L228.443 340.492L228.442 340.492L228.805 339.56ZM236.512 345.938L237.303 345.325L237.303 345.325L236.512 345.938ZM259.526 376.612L260.015 375.74L260.015 375.74L259.526 376.612ZM274.728 376.883L275.321 377.688L275.321 377.688L274.728 376.883ZM276.347 357.102L275.46 357.563L275.46 357.563L276.347 357.102ZM226.611 306.841L227.489 306.363L227.489 306.363L226.611 306.841ZM229.075 288.086L228.655 287.179L228.655 287.178L229.075 288.086ZM245.64 295.721L244.839 296.319L244.838 296.319L245.64 295.721ZM260.262 307.999L260.161 308.994L260.161 308.994L260.262 307.999ZM271.128 303.155L270.363 302.511L270.363 302.511L271.128 303.155ZM268.394 274.72L269.163 274.081L269.163 274.081L268.394 274.72ZM243.07 256.339C198.319 223.73 178.838 164.487 178.802 112.291L180.802 112.29C180.837 164.105 200.191 222.619 244.248 254.723L243.07 256.339ZM178.802 112.291C178.8 107.194 179.019 101.596 181.749 96.8929L183.479 97.8971C181.049 102.082 180.8 107.168 180.802 112.29L178.802 112.291ZM181.749 96.8932C183.253 94.3005 185.967 91.7141 189.391 91.7387L189.377 93.7386C187.006 93.7216 184.83 95.5673 183.479 97.8967L181.749 96.8932ZM189.392 91.7387C191.743 91.7574 193.807 93.0247 195.48 94.0577L194.429 95.7593C192.674 94.6755 191.079 93.7522 189.376 93.7386L189.392 91.7387ZM195.481 94.0582C199.498 96.5447 203.514 99.031 207.534 101.515L206.482 103.216C202.462 100.732 198.445 98.2452 194.428 95.7588L195.481 94.0582ZM207.534 101.515C208.448 102.081 209.36 102.61 210.275 102.941C211.182 103.268 212.02 103.373 212.807 103.166L213.314 105.101C212.005 105.444 210.733 105.232 209.596 104.822C208.468 104.414 207.402 103.785 206.482 103.216L207.534 101.515ZM212.807 103.166C214.241 102.79 215.031 101.623 215.322 99.8636C215.616 98.0897 215.343 95.9313 214.807 94.1143L216.726 93.549C217.315 95.5473 217.654 98.0244 217.295 100.19C216.935 102.37 215.81 104.446 213.315 105.101L212.807 103.166ZM214.807 94.1147C206.802 66.9838 190.764 42.153 169.129 23.4039L170.439 21.8925C192.36 40.8889 208.611 66.0464 216.726 93.5486L214.807 94.1147ZM169.129 23.4038C166.809 21.3927 150.844 9.15289 128.2 3.73334C105.61 -1.67307 76.3706 -0.301025 47.2952 24.8557L45.9866 23.3433C75.6315 -2.3063 105.563 -3.74078 128.665 1.78827C151.712 7.3042 167.958 19.7419 170.439 21.8926L169.129 23.4038ZM47.2952 24.8557C14.0742 53.5978 10.3141 102.138 12.3071 142.708L10.3096 142.806C8.3163 102.233 11.9797 52.7653 45.9866 23.3433L47.2952 24.8557ZM12.3071 142.708C15.4137 205.915 31.3771 269.23 64.742 323.398L63.0391 324.447C29.4601 269.932 13.4287 206.271 10.3096 142.806L12.3071 142.708ZM64.742 323.398C77.0096 343.316 92.0524 362.274 112.537 373.743L111.56 375.488C90.633 363.771 75.3712 344.47 63.0391 324.447L64.742 323.398ZM112.537 373.743C115.007 375.126 117.73 376.363 120.428 376.945C123.12 377.526 125.718 377.44 128.02 376.273L128.924 378.057C126.087 379.496 122.985 379.542 120.006 378.9C117.033 378.259 114.113 376.918 111.56 375.488L112.537 373.743ZM128.019 376.273C132.095 374.204 133.953 369.251 134.345 364.364L136.338 364.523C135.93 369.628 133.953 375.504 128.925 378.056L128.019 376.273ZM134.345 364.364C134.541 361.912 134.47 359.464 134.501 356.9C134.532 354.372 134.665 351.784 135.302 349.234L137.242 349.718C136.664 352.035 136.532 354.434 136.501 356.924C136.471 359.379 136.542 361.982 136.338 364.523L134.345 364.364ZM135.302 349.234C135.949 346.641 137.321 344.063 139.235 342.121C141.154 340.174 143.667 338.823 146.563 338.833L146.556 340.833C144.323 340.825 142.299 341.862 140.66 343.525C139.016 345.192 137.81 347.444 137.242 349.718L135.302 349.234ZM146.563 338.833C153.245 338.858 157.675 342.956 161.06 348.181C162.753 350.795 164.217 353.737 165.591 356.673C166.976 359.632 168.257 362.555 169.624 365.24L167.842 366.147C166.456 363.425 165.135 360.417 163.779 357.521C162.413 354.601 160.997 351.762 159.381 349.269C156.149 344.28 152.245 340.854 146.556 340.833L146.563 338.833ZM169.624 365.24C172.917 371.704 176.103 378.219 179.178 384.782L177.367 385.631C174.302 379.087 171.125 372.592 167.842 366.148L169.624 365.24ZM179.178 384.782C187.362 402.247 194.857 420.111 207.245 434.729L205.72 436.022C193.115 421.148 185.493 402.972 177.367 385.631L179.178 384.782ZM207.245 434.729C219.618 449.328 237.995 460.337 257.108 458.868L257.262 460.862C237.288 462.398 218.34 450.913 205.72 436.022L207.245 434.729ZM257.108 458.868C259.963 458.648 262.693 458.066 264.421 456.32L265.843 457.726C263.56 460.033 260.159 460.639 257.262 460.862L257.108 458.868ZM264.421 456.319C266.05 454.674 266.597 452.131 266.446 449.586L268.443 449.468C268.609 452.289 268.038 455.508 265.842 457.727L264.421 456.319ZM266.446 449.585C266.026 442.437 261.094 436.315 256.039 430.529L257.545 429.213C262.532 434.92 267.977 441.536 268.443 449.468L266.446 449.585ZM256.039 430.529C245.72 418.717 234.918 406.948 226.859 393.387L228.578 392.365C236.521 405.731 247.171 417.338 257.545 429.213L256.039 430.529ZM226.859 393.387C218.792 379.81 213.507 363.972 215.391 348.216L217.377 348.453C215.564 363.621 220.643 379.011 228.578 392.365L226.859 393.387ZM215.392 348.215C215.713 345.542 216.347 342.412 218.557 340.254L219.954 341.686C218.283 343.317 217.695 345.807 217.377 348.454L215.392 348.215ZM218.557 340.255C221.329 337.546 225.754 337.298 229.168 338.629L228.442 340.492C225.521 339.354 222.002 339.684 219.955 341.685L218.557 340.255ZM229.167 338.628C232.59 339.958 235.205 342.621 237.303 345.325L235.722 346.551C233.701 343.945 231.359 341.626 228.443 340.492L229.167 338.628ZM237.303 345.325C241.313 350.496 244.307 356.719 247.579 362.2C250.896 367.755 254.557 372.68 260.015 375.74L259.037 377.485C253.107 374.16 249.224 368.857 245.862 363.226C242.456 357.521 239.637 351.599 235.722 346.551L237.303 345.325ZM260.015 375.74C264.498 378.254 270.293 378.905 274.135 376.077L275.321 377.688C270.585 381.174 263.867 380.194 259.037 377.485L260.015 375.74ZM274.135 376.078C276.757 374.147 277.915 371.143 277.996 367.75C278.077 364.347 277.065 360.651 275.46 357.563L277.235 356.641C278.965 359.97 280.086 363.998 279.995 367.798C279.904 371.608 278.584 375.286 275.321 377.688L274.135 376.078ZM275.46 357.563C270.138 347.322 260.723 340.069 251.028 332.689C241.406 325.365 231.503 317.911 225.732 307.319L227.489 306.363C233.017 316.511 242.539 323.714 252.239 331.098C261.866 338.426 271.671 345.935 277.235 356.641L275.46 357.563ZM225.732 307.319C223.956 304.059 222.88 299.941 223.116 296.196C223.354 292.437 224.941 288.897 228.655 287.179L229.495 288.994C226.665 290.303 225.321 293.02 225.112 296.322C224.903 299.638 225.866 303.384 227.489 306.363L225.732 307.319ZM228.655 287.178C232.046 285.612 235.558 286.328 238.627 288.02C241.689 289.709 244.431 292.424 246.442 295.124L244.838 296.319C242.942 293.773 240.403 291.283 237.661 289.772C234.926 288.264 232.11 287.785 229.494 288.994L228.655 287.178ZM246.442 295.124C248.429 297.79 250.372 300.602 252.645 302.864C254.9 305.109 257.377 306.699 260.364 307.004L260.161 308.994C256.541 308.624 253.661 306.697 251.234 304.282C248.825 301.885 246.759 298.896 244.839 296.319L246.442 295.124ZM260.364 307.004C264.087 307.383 267.891 305.449 270.363 302.511L271.893 303.799C269.1 307.119 264.689 309.455 260.161 308.994L260.364 307.004ZM270.363 302.511C273.493 298.792 274.444 293.99 273.783 289.086C273.12 284.175 270.844 279.231 267.625 275.36L269.163 274.081C272.603 278.219 275.048 283.507 275.765 288.819C276.482 294.137 275.471 299.548 271.893 303.799L270.363 302.511ZM267.625 275.36C264.377 271.454 260.393 268.259 256.128 265.254C253.995 263.751 251.806 262.305 249.605 260.839C247.409 259.376 245.206 257.896 243.07 256.339L244.248 254.723C246.346 256.252 248.518 257.712 250.714 259.175C252.904 260.634 255.12 262.097 257.28 263.619C261.6 266.663 265.749 269.977 269.163 274.081L267.625 275.36Z" fill="#221E3E" mask="url(#path-1-inside-1_1_35)"/>
<path d="M23.0854 170.506C24.3565 180.015 27.3297 189.307 31.8321 197.832C33.5696 201.125 35.5722 204.35 38.3489 206.879C41.1233 209.404 44.7711 211.188 48.5657 211.133C51.1506 211.096 53.7972 210.13 55.4423 208.184C58.7162 204.316 57.0023 198.546 55.0873 193.892C51.198 184.447 47.0672 175.072 41.9399 166.21L23.0854 170.506Z" fill="white"/>
<path d="M86.0528 159.67C78.279 165.912 72.2829 174.242 68.9049 183.497C67.2526 188.029 66.2158 192.953 67.2976 197.644C68.3794 202.335 71.987 206.703 76.8279 207.597C82.5067 208.644 87.8684 204.907 92.1577 201.127C99.915 194.291 107.028 186.309 110.411 176.655L86.0528 159.67Z" fill="white"/>
<path d="M25.8113 96.4337C26.6161 99.6365 28.195 102.77 30.8533 104.804C32.0795 105.742 33.7886 106.428 35.1687 105.721C35.9286 105.33 36.4281 104.589 36.8187 103.84C38.2484 101.115 38.6508 97.9866 38.6911 94.9247C38.7408 91.024 38.2366 87.114 37.195 83.3473C35.7108 77.9769 31.3741 75.1369 28.0624 80.6921C25.2336 85.4317 24.4738 91.1095 25.8113 96.4337Z" fill="#2E2763"/>
<path d="M74.5254 110.391C75.3823 111.318 76.4002 112.152 77.617 112.536C80.2682 113.372 83.2414 111.794 84.7138 109.485C86.1838 107.177 86.4442 104.327 86.3755 101.61C86.243 96.4636 85.0547 91.3336 82.794 86.6841C79.6504 80.2161 72.6956 82.2542 71.3818 88.4681C69.8384 95.7819 68.9791 104.39 74.5254 110.391Z" fill="#2E2763"/>
<path d="M181.583 139.321C181.562 139.277 181.54 139.233 181.519 139.189C180.381 130.204 179.817 121.257 179.801 112.501C179.817 121.298 180.433 130.294 181.583 139.321ZM179.801 112.496C179.801 112.425 179.801 112.36 179.801 112.291C179.801 112.358 179.801 112.427 179.801 112.496ZM179.801 112.231C179.801 112.21 179.801 112.191 179.801 112.17C179.801 112.191 179.801 112.21 179.801 112.231ZM179.824 109.899C179.827 109.813 179.829 109.728 179.831 109.64C179.829 109.728 179.827 109.813 179.824 109.899ZM179.836 109.439C179.846 109.146 179.857 108.85 179.869 108.554C179.857 108.85 179.846 109.146 179.836 109.439ZM179.872 108.549C179.883 108.256 179.9 107.965 179.919 107.674C179.9 107.965 179.883 108.256 179.872 108.549ZM179.926 107.558C179.928 107.528 179.931 107.496 179.931 107.466C179.931 107.496 179.928 107.528 179.926 107.558ZM179.964 107.033C180.229 103.646 180.911 100.325 182.613 97.3949C184.033 94.9454 186.462 92.7386 189.338 92.7386C189.352 92.7386 189.369 92.7386 189.383 92.7386C191.409 92.7547 193.239 93.8501 194.953 94.9084C198.97 97.3949 202.987 99.8814 207.007 102.366C207.904 102.922 208.872 103.489 209.871 103.858C208.872 103.489 207.904 102.922 207.007 102.366C202.987 99.8814 198.97 97.3949 194.953 94.9107C193.239 93.8501 191.409 92.7571 189.383 92.7386C189.369 92.7386 189.355 92.7386 189.34 92.7386C186.462 92.7386 184.033 94.9454 182.613 97.3949C180.911 100.325 180.229 103.646 179.964 107.033ZM212.117 104.27C212.432 104.26 212.747 104.217 213.06 104.133C216.989 103.103 216.89 97.6468 215.765 93.8316C215.723 93.686 215.68 93.5427 215.635 93.3971C215.68 93.5427 215.723 93.686 215.765 93.8316C216.892 97.6468 216.989 103.103 213.06 104.133C212.747 104.217 212.432 104.26 212.117 104.27ZM209.878 103.861C209.876 103.861 209.876 103.861 209.876 103.861C209.876 103.861 209.876 103.861 209.878 103.861Z" fill="#6243A4"/>
<path d="M181.52 139.189C172.52 120.688 168.048 100.658 183.797 87.2064C186.351 84.713 189.407 83.9389 192.672 83.9389C195.342 83.9389 198.149 84.4565 200.931 84.9741C203.715 85.4941 206.47 86.0117 209.036 86.0117C210.421 86.0117 211.751 85.8615 213.001 85.4779C213.948 88.0938 214.84 90.7327 215.636 93.3972C215.681 93.5427 215.723 93.686 215.766 93.8316C216.89 97.6468 216.99 103.103 213.06 104.133C212.748 104.217 212.433 104.26 212.118 104.27C212.066 104.272 212.016 104.274 211.964 104.274C211.261 104.274 210.563 104.113 209.879 103.861C209.877 103.861 209.876 103.861 209.876 103.861C209.874 103.861 209.874 103.858 209.872 103.858C208.873 103.489 207.905 102.922 207.007 102.366C202.988 99.8814 198.971 97.3949 194.954 94.9085C193.24 93.8501 191.41 92.7548 189.384 92.7386C189.37 92.7386 189.353 92.7386 189.339 92.7386C186.463 92.7386 184.034 94.9454 182.614 97.3949C180.912 100.325 180.23 103.646 179.965 107.033C179.953 107.177 179.943 107.322 179.932 107.466C179.932 107.496 179.929 107.528 179.927 107.558C179.925 107.595 179.922 107.634 179.92 107.674C179.901 107.965 179.884 108.256 179.872 108.549C179.87 108.549 179.87 108.552 179.87 108.554C179.858 108.85 179.846 109.146 179.837 109.439C179.835 109.506 179.835 109.573 179.832 109.64C179.83 109.728 179.828 109.813 179.825 109.899C179.809 110.659 179.801 111.417 179.801 112.17C179.801 112.191 179.801 112.21 179.801 112.231C179.801 112.249 179.801 112.27 179.801 112.291C179.801 112.36 179.801 112.425 179.801 112.496C179.801 112.496 179.801 112.499 179.801 112.501C179.818 121.257 180.381 130.204 181.52 139.189Z" fill="#D9BFE4"/>
<path d="M80.5619 347.503C77.1745 343.422 73.9859 339.158 70.9677 334.791C73.9859 339.158 77.1745 343.422 80.5619 347.503Z" fill="#5E41A3"/>
<path d="M94.5948 362.112C89.548 357.643 84.8917 352.721 80.5621 347.503C77.1747 343.422 73.9861 339.158 70.9679 334.791C71.1218 334.802 71.2757 334.807 71.432 334.807C73.6571 334.807 76.0314 333.834 77.8044 332.21C80.2047 334.086 82.1695 334.899 83.9828 334.899C84.9983 334.899 85.9665 334.645 86.937 334.176L86.9394 334.178C86.9607 334.185 86.9796 334.192 87.0009 334.197L87.008 334.199C88.4709 334.678 89.8249 334.899 91.1198 334.899C91.9696 334.899 92.7958 334.805 93.6124 334.624C99.4333 336.404 98.7187 293.057 105.636 293.055C108.178 293.055 85.1379 278.611 91.1198 325.985C101.128 323.544 136.215 312.944 150.782 312.944C152.951 312.944 155.318 313.422 157.924 314.513C161.347 315.851 143.058 336.601 145.582 338.983C129.925 352.425 142.919 367.58 126.94 378.845C121.103 382.961 101.197 369.313 94.5948 362.112ZM25.1346 232.674C20.7553 216.344 17.4412 199.71 15.1048 182.95C18.2342 193.998 21.1814 205.873 24.273 217.959C24.1381 219.369 24.0741 220.776 24.0741 222.174C24.0741 225.737 24.4837 229.25 25.1559 232.663C25.1488 232.665 25.1417 232.67 25.1346 232.674Z" fill="#D9BFE4"/>
<path d="M35.4838 235.283C34.2884 230.904 33.5403 226.465 33.5427 222.174C33.5427 220.45 33.6611 218.749 33.9167 217.076C34.795 211.273 37.4935 205.757 41.6787 202.245C45.8402 198.719 51.3249 196.371 56.947 195.504C60.8292 194.899 64.2876 194.635 67.3626 194.635C72.2579 194.635 76.1685 195.303 79.3216 196.341C84.0465 197.91 87.1286 200.271 89.3916 202.897C91.6428 205.522 93.0229 208.468 93.9035 211.075C95.3119 215.234 95.9084 219.676 95.9084 224.265C95.9108 228.591 95.3782 233.039 94.526 237.439L103.831 239.151C104.762 234.333 105.377 229.328 105.377 224.265C105.377 218.899 104.684 213.46 102.894 208.172C101.391 203.726 98.5833 197.968 92.9258 193.309C90.1065 190.989 86.5936 188.978 82.3492 187.583C78.1025 186.185 73.1385 185.392 67.3626 185.392C63.7313 185.392 59.7758 185.704 55.4581 186.374C48.2216 187.504 41.1626 190.464 35.4814 195.257C29.1942 200.597 25.7168 208.138 24.5521 215.713C24.2207 217.873 24.074 220.034 24.074 222.174C24.0763 227.505 24.9853 232.716 26.3323 237.661L35.4838 235.283Z" fill="#2E2763"/>
<path d="M119.689 248.425C107.662 230.391 95.13 227.223 85.5784 228.584C82.6691 228.004 79.9657 228.39 77.5986 229.229C74.6064 227.246 70.3455 228.776 68.3784 230.872C66.7095 228.966 66.5249 228.268 64.8987 228.309L64.8679 228.305C63.1588 228.194 62.8558 228.88 61.0875 230.893C59.1203 228.785 54.8571 227.239 51.8531 229.229C49.4859 228.39 46.785 228.004 43.8733 228.584C34.3218 227.223 21.7899 230.391 9.7623 248.425C-14.3877 284.634 12.6219 319.997 22.7913 327.13C30.9083 332.827 35.3823 336.538 42.5146 334.176C45.2108 335.475 47.8952 335.142 51.633 332.221C54.5446 334.932 59.0494 335.9 61.9042 333.654C64.7259 335.445 66.3616 334.416 67.5854 333.564C70.4213 335.775 74.9142 334.858 77.8045 332.21C81.5494 335.14 84.2386 335.477 86.9371 334.176C94.0695 336.538 98.5458 332.827 106.663 327.13C116.83 319.997 143.839 284.634 119.689 248.425Z" fill="#F58021"/>
<path d="M51.6336 332.223C44.2788 326.268 42.0797 316.417 39.5823 307.83C33.804 283.617 34.4858 256.324 46.9963 234.172C48.2628 232.247 49.8061 230.354 51.8537 229.231C50.1162 230.749 49.0629 232.76 48.1539 234.777C39.5705 257.777 39.3503 283.127 43.1875 307.107C44.9984 315.685 45.9003 325.134 51.6336 332.223Z" fill="#F58021"/>
<path d="M25.7049 250.57C25.1605 249.798 24.6137 249.063 24.074 248.388C24.4527 246.81 24.8835 245.243 25.3617 243.688C29.6132 236.589 35.4435 229.894 43.8731 228.586C34.151 232.016 29.4261 241.814 25.7049 250.57Z" fill="#F36429"/>
<path d="M91.1248 331.715C90.7508 331.687 90.3792 331.655 90.0075 331.62C96.5054 325.628 100.854 317.693 103.867 309.512C110.983 290.91 111.741 269.916 104.061 251.334C102.222 246.972 100.16 242.297 97.3718 238.239C98.25 238.669 99.0762 239.034 99.4857 239.323C101.036 240.411 102.459 241.67 103.721 243.069C105.12 245.342 106.351 247.672 107.449 249.892C116.946 268.832 116.089 291.874 107.274 310.871C103.711 318.853 98.4631 326.652 91.1248 331.715ZM94.4957 234.613C92.0693 231.986 89.1648 229.855 85.5809 228.586C89.714 229.224 93.2221 231.158 96.2237 233.802C96.2166 233.802 96.2071 233.804 96.2 233.804C95.5514 233.851 94.8934 234.128 94.4957 234.613Z" fill="#F36429"/>
<path d="M77.5989 229.231C85.2946 234.696 87.4937 244.892 90.1023 253.345C95.954 277.546 94.2378 304.819 82.5013 327.112C81.2302 329.062 79.6536 330.828 77.8048 332.212C80.8348 328.746 82.2764 324.519 83.4364 320.184C88.9566 298.686 90.2704 275.98 86.5018 254.091C84.5655 245.65 83.737 235.921 77.5989 229.231Z" fill="#F58021"/>
<path d="M37.7008 298.455C37.625 298.379 37.5516 298.3 37.4782 298.222C36.4935 292.142 36.0414 285.958 36.0911 279.788C36.1384 286.053 36.7018 292.315 37.7008 298.455ZM40.8088 279.723C40.726 268.594 41.8125 257.472 44.478 246.704C43.9596 249.204 43.5003 251.7 42.9512 254.091C41.4953 262.554 40.797 271.136 40.8088 279.723ZM41.5592 246.024C42.9251 241.733 44.5774 237.453 47.1719 233.911C47.1127 233.996 47.0535 234.084 46.9967 234.172C44.8425 237.985 43.0411 241.95 41.5592 246.024ZM48.3791 234.288C49.2384 232.437 50.2586 230.627 51.8541 229.231C50.4385 230.773 49.307 232.476 48.3791 234.288Z" fill="#F36429"/>
<path d="M51.6333 332.223C51.6333 332.223 51.6333 332.223 51.6309 332.223H51.6333ZM41.8687 300.255C40.3679 300.255 38.8837 299.629 37.7001 298.455C36.7012 292.315 36.1378 286.053 36.0904 279.788C36.1614 270.826 37.2835 261.895 39.3524 253.345C40.0768 250.992 40.7703 248.506 41.5586 246.024C43.0404 241.95 44.8419 237.985 46.996 234.172C47.0529 234.084 47.112 233.996 47.1712 233.911C48.4684 232.136 50.0023 230.546 51.8534 229.231C50.258 230.627 49.2377 232.436 48.3784 234.287C46.4184 238.109 45.3627 242.415 44.4773 246.703C41.8119 257.472 40.7253 268.594 40.8082 279.723C40.8082 279.906 40.8082 280.086 40.8106 280.269C40.5809 281.583 40.4271 282.875 40.349 284.1C40.3135 284.694 40.2945 285.274 40.2945 285.831C40.2945 286.362 40.3135 286.875 40.3466 287.365C40.3916 287.987 40.5549 288.719 41.097 289.034C41.3219 292.782 41.6793 296.521 42.1646 300.246C42.0652 300.25 41.9681 300.255 41.8687 300.255Z" fill="#F36429"/>
<path d="M79.5187 329.929C79.4997 329.924 79.4808 329.919 79.4619 329.915C80.3472 328.531 81.0857 327.077 81.7154 325.573C81.1165 327.089 80.4064 328.549 79.5187 329.929ZM82.6859 326.758C84.8188 322.663 86.6155 318.4 88.0902 314.021C86.7622 318.469 85.1904 322.934 82.6859 326.758ZM85.0981 313.076C85.4461 311.269 85.7775 309.466 86.142 307.698C85.8248 309.496 85.4769 311.289 85.0981 313.076ZM86.5232 305.457C87.8086 296.995 88.5779 288.375 88.6442 279.756C88.6323 288.357 87.908 296.965 86.5232 305.457ZM93.3619 279.783C93.2909 270.822 92.1689 261.893 90.1023 253.345C89.3756 250.99 88.6797 248.499 87.889 246.015C91.7925 256.76 93.4495 268.271 93.3619 279.783ZM84.975 246.697C83.9784 242.667 82.7593 238.69 81.3012 234.777C81.2278 234.62 81.1568 234.461 81.0834 234.301C83.0363 238.116 84.0897 242.415 84.975 246.697ZM82.2717 233.892C80.9768 232.127 79.4453 230.541 77.5989 229.231C79.547 230.299 81.0407 232.064 82.2717 233.892Z" fill="#F36429"/>
<path d="M80.1128 330.063C79.914 330.019 79.7175 329.975 79.5187 329.929C80.4064 328.549 81.1165 327.089 81.7154 325.573C83.3724 321.621 84.2814 317.332 85.0981 313.076C85.4769 311.29 85.8248 309.496 86.142 307.698C86.1823 307.502 86.2249 307.306 86.2651 307.109C86.3527 306.559 86.4403 306.009 86.5232 305.457C87.908 296.965 88.6323 288.357 88.6442 279.756C88.7317 268.613 87.6428 257.477 84.975 246.697C84.0897 242.415 83.0363 238.116 81.0834 234.301C80.2194 232.448 79.1991 230.629 77.5989 229.231C79.4453 230.542 80.9768 232.127 82.2717 233.892C82.3332 233.985 82.3948 234.079 82.4563 234.172C84.6081 237.98 86.4096 241.943 87.889 246.015C88.6797 248.499 89.3756 250.99 90.1023 253.345C92.1689 261.893 93.2909 270.822 93.3619 279.783C93.2909 289.276 92.0339 298.769 89.8703 307.83C89.2833 309.845 88.7128 311.932 88.0902 314.021C86.6155 318.4 84.8188 322.664 82.6859 326.758C81.9213 327.928 81.0715 329.035 80.1128 330.063Z" fill="#F36429"/>
<path d="M59.144 322.453C58.3344 322.046 57.532 321.628 56.7295 321.196C56.5046 320.029 56.2868 318.811 56.0785 317.545C57.0372 317.187 57.9557 316.678 58.8079 316.034C58.8884 317.795 58.9783 319.553 59.073 321.312C59.099 321.691 59.1204 322.072 59.144 322.453ZM53.9623 299.377C52.0425 274.399 53.2616 243.669 61.0875 230.893C57.9841 239.078 58.6043 247.901 58.1309 256.481C57.9273 265.126 57.809 273.764 57.9249 282.404C57.9628 287.164 58.0338 291.929 58.1427 296.694C57.8539 296.463 57.5651 296.225 57.2763 295.98C57.2716 295.978 57.2669 295.973 57.2645 295.971C57.2598 295.969 57.255 295.964 57.2503 295.959C57.2432 295.955 57.2361 295.948 57.229 295.941C57.2243 295.939 57.2219 295.936 57.2172 295.932C57.2101 295.925 57.2006 295.918 57.1935 295.911C57.1887 295.908 57.1864 295.906 57.184 295.904C57.1745 295.897 57.1675 295.89 57.158 295.883C57.1556 295.878 57.1532 295.876 57.1485 295.874C57.139 295.867 57.1319 295.86 57.1224 295.851C57.1201 295.848 57.1178 295.848 57.1154 295.846C57.1059 295.837 57.0964 295.83 57.087 295.821C57.0846 295.818 57.0822 295.818 57.0798 295.816C57.0704 295.807 57.0609 295.8 57.0515 295.791C57.0491 295.788 57.0467 295.788 57.0444 295.786C57.0349 295.777 57.0254 295.77 57.0159 295.761C57.0136 295.758 57.0112 295.758 57.0088 295.756C56.9994 295.747 56.9899 295.737 56.9781 295.728L56.9757 295.726C56.9639 295.717 56.9521 295.705 56.9402 295.696L56.9355 295.705C56.9307 295.719 56.926 295.735 56.9189 295.749C56.9189 295.751 56.9189 295.754 56.9165 295.754C56.533 296.738 55.9957 297.561 55.366 298.229L55.3755 298.236C54.9447 298.695 54.4689 299.077 53.9623 299.377Z" fill="#F36429"/>
<path d="M71.2689 327.574C70.8333 327.426 70.3978 327.274 69.9622 327.119C70.2202 325.187 70.2557 323.193 70.3978 321.226C70.6179 317.619 70.7505 314.005 70.8949 310.395C72.3673 309.452 73.7024 308.214 74.8481 306.753C74.7842 307.345 74.7202 307.939 74.654 308.53C74.1521 312.87 73.5035 317.196 72.6916 321.501C72.2749 323.454 71.9057 325.573 71.2689 327.574ZM71.3375 295.104C71.5245 286.61 71.6169 278.11 71.5506 269.613C76.846 264.64 74.3959 253.294 70.9233 246.093C70.9233 246.091 70.9209 246.089 70.9185 246.087C70.9162 246.08 70.9138 246.073 70.9114 246.066C70.8688 245.215 70.8239 244.363 70.7789 243.512C70.4238 239.24 70.0522 234.918 68.3786 230.872C73.3165 238.308 73.8325 247.667 74.9972 256.206C76.0482 266.082 76.427 276.021 76.1997 285.946C75.3831 285.47 74.6516 284.722 74.1001 283.682V283.679L71.9909 293.034C71.7897 293.789 71.5695 294.48 71.3375 295.104Z" fill="#F36429"/>
<path d="M58.0808 334.904C55.832 334.904 53.4293 333.894 51.6326 332.221C51.6326 332.221 51.6326 332.221 51.6303 332.223C49.9661 330.164 48.7092 327.907 47.7197 325.529C47.0379 323.798 46.5006 322.003 46.0153 320.184C45.71 318.998 45.4188 317.808 45.1395 316.618C45.5916 316.315 46.0295 315.969 46.4556 315.574C46.484 315.601 46.5148 315.629 46.5432 315.657C46.5645 315.675 46.5882 315.696 46.6095 315.717C46.645 315.749 46.6829 315.784 46.7184 315.816C46.7184 315.816 46.7184 315.816 46.7207 315.816C46.7326 315.828 46.7468 315.84 46.7586 315.851C46.761 315.853 46.7633 315.853 46.7633 315.856C46.7681 315.858 46.7704 315.86 46.7728 315.865C46.7775 315.867 46.7823 315.872 46.787 315.876C46.7918 315.879 46.7965 315.883 46.7989 315.888C46.8036 315.89 46.806 315.893 46.8083 315.895C46.8154 315.9 46.8201 315.904 46.8272 315.911C46.8272 315.911 46.8296 315.913 46.832 315.913C48.1789 317.08 49.6868 317.769 51.2326 318.035C53.0506 319.149 54.8828 320.202 56.7292 321.196C57.2216 323.75 57.7518 326.051 58.3104 328.041C59.0419 330.169 60.1782 332.226 61.9039 333.654C60.8102 334.513 59.4751 334.904 58.0808 334.904ZM71.4318 334.807C70.028 334.807 68.6835 334.419 67.5851 333.564C69.4694 331.999 70.5417 329.862 71.2684 327.574C73.9717 328.494 76.7011 329.277 79.4612 329.915C78.9594 330.705 78.4078 331.47 77.8042 332.21C76.0312 333.834 73.6569 334.807 71.4318 334.807ZM64.7966 334.641C64.0556 334.641 63.194 334.419 62.1713 333.818C62.1666 333.813 62.1618 333.811 62.1571 333.809C62.0743 333.76 61.9891 333.707 61.9039 333.654C59.4538 330.356 59.3662 326.388 59.1437 322.453C62.6945 324.246 66.302 325.809 69.9617 327.119C69.6587 329.409 69.048 331.609 67.5851 333.564C66.856 334.072 65.9825 334.641 64.7966 334.641Z" fill="#F36429"/>
<path d="M45.4719 334.899C44.454 334.899 43.4858 334.645 42.5153 334.176C42.5153 334.178 42.5153 334.178 42.5153 334.178C35.0823 328.598 30.0971 320.646 26.6504 312.228C27.3322 312.35 28.0234 312.415 28.7194 312.415C29.4129 312.415 30.1089 312.353 30.8049 312.223C32.985 315.997 36.5264 318.185 40.1126 318.185C40.9364 318.185 41.7649 318.07 42.5792 317.829C43.6681 320.97 44.9819 324.027 46.7667 326.758C46.8283 326.876 46.8898 326.994 46.9514 327.112C48.2226 329.062 49.7944 330.828 51.6313 332.223C51.1058 332.632 50.6016 332.993 50.114 333.303C48.3859 334.407 46.8827 334.899 45.4719 334.899ZM27.2351 300.408C26.8209 300.408 26.4303 300.357 26.0586 300.255L26.061 300.267C26.061 300.267 26.1202 300.283 26.2291 300.311C23.8879 299.777 22.3872 297.327 21.213 293.762C19.7501 285.542 19.5134 277.128 20.6544 268.885C21.0805 269.398 21.5729 269.863 22.1315 270.267C22.8014 280.454 25.758 290.369 31.3422 299.088C29.7538 299.994 28.4022 300.408 27.2351 300.408Z" fill="#F36429"/>
<path d="M38.3323 334.899C33.3518 334.899 29.2092 331.636 22.7918 327.13C15.6713 322.137 0.298856 303.308 0.00532532 280.04C0.298856 303.308 15.6713 322.137 22.7918 327.13C29.2092 331.634 33.3518 334.899 38.3323 334.899C38.9975 334.899 39.6769 334.842 40.3799 334.719C39.6769 334.842 38.9975 334.899 38.3323 334.899Z" fill="#5D1D62"/>
<path d="M0.00503436 280.04C-0.110958 270.85 2.12364 260.966 8.14812 250.969C2.12364 260.966 -0.110958 270.85 0.00503436 280.04Z" fill="#451D54"/>
<path d="M9.76217 248.425C9.78112 248.397 9.80006 248.37 9.81664 248.342C9.80006 248.37 9.78112 248.397 9.76217 248.425ZM9.83086 248.321C9.84744 248.296 9.86401 248.27 9.88059 248.245C9.86401 248.27 9.84744 248.298 9.83086 248.321ZM9.88533 248.24C9.90428 248.212 9.92322 248.184 9.9398 248.159C9.92086 248.187 9.90428 248.212 9.88533 248.24ZM9.95397 248.138C9.97055 248.115 9.98481 248.092 10.0014 248.067C9.98481 248.09 9.97055 248.115 9.95397 248.138ZM10.0085 248.055C10.0274 248.029 10.0464 248.002 10.063 247.976C10.0464 248.002 10.0274 248.027 10.0085 248.055ZM10.0795 247.953C10.0937 247.932 10.1056 247.912 10.1198 247.893C10.1056 247.912 10.0913 247.932 10.0795 247.953ZM10.134 247.87C10.1529 247.844 10.1696 247.819 10.1861 247.794C10.1696 247.819 10.1529 247.844 10.134 247.87ZM10.2027 247.773C10.2145 247.752 10.2288 247.731 10.243 247.71C10.2288 247.731 10.2145 247.752 10.2027 247.773ZM10.2595 247.687C10.2761 247.662 10.295 247.636 10.3116 247.611C10.295 247.636 10.2761 247.662 10.2595 247.687ZM10.3258 247.592C10.3377 247.572 10.3519 247.553 10.3638 247.535C10.3519 247.553 10.3377 247.572 10.3258 247.592ZM10.385 247.502C10.3969 247.488 10.4088 247.472 10.4182 247.456C10.4064 247.472 10.3969 247.486 10.385 247.502ZM10.4561 247.403C10.4656 247.387 10.4774 247.37 10.4869 247.354C10.4774 247.37 10.4656 247.387 10.4561 247.403ZM10.5106 247.322C10.5201 247.308 10.5296 247.292 10.5414 247.278C10.5296 247.294 10.5201 247.308 10.5106 247.322ZM10.584 247.218C10.5911 247.206 10.6006 247.192 10.6077 247.181C10.6006 247.192 10.5911 247.204 10.584 247.218ZM10.6361 247.139C10.6456 247.127 10.655 247.114 10.6645 247.1C10.655 247.114 10.6456 247.127 10.6361 247.139ZM10.6906 247.063C10.7048 247.042 10.719 247.021 10.7332 247C10.719 247.021 10.7048 247.042 10.6906 247.063ZM10.7664 246.956C10.7711 246.947 10.7758 246.94 10.7829 246.931C10.7758 246.938 10.7711 246.947 10.7664 246.956ZM10.8943 246.771C10.899 246.767 10.9014 246.762 10.9061 246.757C10.9014 246.76 10.899 246.767 10.8943 246.771Z" fill="#451D54"/>
<path d="M38.332 334.899C33.3515 334.899 29.209 331.634 22.7915 327.13C15.671 322.137 0.298565 303.308 0.00503436 280.04C-0.110958 270.85 2.12364 260.966 8.14811 250.969C8.65943 250.121 9.19679 249.273 9.76255 248.425C9.78149 248.397 9.80042 248.37 9.81699 248.342C9.82172 248.335 9.82647 248.328 9.83121 248.321C9.84778 248.298 9.86434 248.27 9.88091 248.245C9.88327 248.245 9.88565 248.243 9.88565 248.24C9.90458 248.213 9.92115 248.187 9.94009 248.159C9.94482 248.152 9.94951 248.146 9.95425 248.139C9.97082 248.116 9.98507 248.09 10.0016 248.067C10.004 248.062 10.0064 248.06 10.0087 248.055C10.0277 248.028 10.0466 248.002 10.0632 247.977C10.0703 247.968 10.075 247.961 10.0797 247.954C10.0915 247.933 10.1058 247.912 10.12 247.894C10.1247 247.887 10.1294 247.877 10.1342 247.871C10.1531 247.845 10.1697 247.82 10.1863 247.794C10.191 247.787 10.1981 247.78 10.2028 247.774C10.2146 247.753 10.2289 247.732 10.2431 247.711C10.2502 247.704 10.2549 247.697 10.2596 247.688C10.2762 247.663 10.2951 247.637 10.3117 247.612C10.3164 247.607 10.3212 247.598 10.3259 247.593C10.3377 247.572 10.352 247.554 10.3638 247.535C10.3709 247.524 10.378 247.515 10.3851 247.503C10.3969 247.487 10.4064 247.473 10.4183 247.457C10.4301 247.438 10.4419 247.42 10.4561 247.404C10.4656 247.388 10.4774 247.371 10.4869 247.355C10.494 247.346 10.5035 247.334 10.5106 247.323C10.52 247.309 10.5295 247.295 10.5414 247.279C10.5556 247.258 10.5697 247.24 10.584 247.219C10.5911 247.205 10.6005 247.193 10.6076 247.182C10.6194 247.168 10.6266 247.154 10.636 247.14C10.6455 247.129 10.6549 247.115 10.6644 247.101C10.6715 247.09 10.681 247.078 10.6905 247.064C10.7047 247.043 10.7189 247.022 10.7331 247.002C10.7449 246.988 10.7544 246.972 10.7662 246.958C10.771 246.949 10.7757 246.939 10.7828 246.932C10.8183 246.879 10.8562 246.826 10.8941 246.773C10.8988 246.768 10.9011 246.761 10.9059 246.759C17.7281 237.079 24.6758 232.057 31.1193 229.818C28.7639 234.248 26.8323 238.905 25.3622 243.688C24.619 244.927 23.923 246.181 23.272 247.42C22.8388 246.919 22.4151 246.466 22.0103 246.07C22.0032 246.064 21.9961 246.057 21.989 246.05C21.9819 246.066 21.9748 246.08 21.9677 246.096C21.9653 246.098 21.9654 246.1 21.963 246.103C21.9559 246.117 21.9488 246.13 21.9417 246.144C21.9417 246.147 21.9393 246.151 21.9393 246.154C21.9322 246.167 21.9251 246.181 21.918 246.195C21.918 246.198 21.9156 246.2 21.9132 246.204C21.9085 246.218 21.9015 246.23 21.8944 246.246C21.892 246.248 21.892 246.253 21.8896 246.255C21.8825 246.269 21.8778 246.281 21.8707 246.295C21.8683 246.299 21.8683 246.304 21.8659 246.308C21.8588 246.32 21.8518 246.334 21.847 246.348C21.8447 246.35 21.8446 246.352 21.8423 246.357C21.8352 246.369 21.8304 246.382 21.8233 246.396C21.821 246.401 21.8186 246.403 21.8186 246.408C21.8115 246.419 21.8067 246.431 21.7996 246.445C21.7973 246.449 21.7973 246.452 21.7949 246.456C21.7902 246.468 21.7831 246.479 21.7784 246.491C21.776 246.496 21.7736 246.5 21.7713 246.505C21.7665 246.519 21.7594 246.53 21.7547 246.544C21.7523 246.549 21.7499 246.553 21.7476 246.558C21.7428 246.57 21.7357 246.581 21.731 246.593C21.7286 246.6 21.7263 246.604 21.7239 246.611C21.7168 246.623 21.7121 246.634 21.7073 246.648C21.705 246.653 21.7002 246.657 21.7002 246.662C21.6931 246.674 21.6907 246.683 21.686 246.694C21.6813 246.701 21.6765 246.708 21.6742 246.717C21.6694 246.727 21.6647 246.736 21.66 246.745C21.6576 246.754 21.6529 246.761 21.6505 246.768C21.6458 246.778 21.6434 246.784 21.6387 246.794C21.6339 246.803 21.6292 246.812 21.6268 246.821C21.6221 246.831 21.6173 246.84 21.615 246.849C21.6102 246.856 21.6079 246.861 21.6056 246.868C21.6008 246.879 21.5961 246.888 21.5913 246.898C21.5866 246.909 21.5819 246.919 21.5771 246.928C21.5748 246.937 21.57 246.944 21.5676 246.951C21.5653 246.958 21.5605 246.965 21.5582 246.972C21.5534 246.983 21.5487 246.992 21.544 247.004C21.5393 247.011 21.5369 247.02 21.5345 247.027C21.5298 247.036 21.5251 247.048 21.5203 247.059C21.5156 247.064 21.5132 247.071 21.5108 247.078C21.5061 247.09 21.5014 247.101 21.4943 247.113C21.4919 247.12 21.4896 247.126 21.4848 247.133C21.4825 247.14 21.4801 247.15 21.4754 247.157C21.4706 247.166 21.4682 247.175 21.4635 247.184C21.4588 247.191 21.4564 247.2 21.4517 247.21C21.4493 247.219 21.4445 247.226 21.4422 247.235C21.4374 247.244 21.4328 247.256 21.428 247.265C21.4257 247.27 21.4233 247.274 21.4209 247.279C21.4162 247.291 21.4091 247.304 21.4043 247.318C21.402 247.323 21.3996 247.328 21.3972 247.334C21.3925 247.346 21.3877 247.358 21.3806 247.369C21.3783 247.376 21.3759 247.383 21.3736 247.388C21.3688 247.401 21.3641 247.413 21.357 247.427C21.3546 247.429 21.3523 247.436 21.3523 247.441C21.3452 247.455 21.338 247.468 21.3333 247.482C21.3309 247.485 21.3309 247.489 21.3286 247.492C21.3215 247.505 21.3168 247.522 21.3097 247.538C21.3073 247.54 21.3073 247.54 21.3073 247.542C21.3002 247.559 21.2931 247.575 21.286 247.591V247.593C21.2481 247.681 21.2102 247.769 21.1723 247.859C19.7544 251.233 18.6276 255.231 18.3388 258.997C15.5621 267.795 14.691 277.144 15.5456 286.346C15.1526 286.455 14.7502 286.508 14.3501 286.508C13.2896 286.508 12.2339 286.136 11.3485 285.415V285.433C11.3485 285.433 11.358 285.44 11.3722 285.452C10.4443 284.71 9.70336 283.585 9.34118 282.108C9.05002 280.918 8.81329 279.709 8.61681 278.582C8.61681 278.577 8.61681 278.575 8.61681 278.573C8.36826 277.149 8.18601 275.846 8.04871 274.861C8.04398 274.817 8.03686 274.771 8.03212 274.727C7.17284 277.443 6.63314 280.685 6.63077 283.887C6.6284 290.055 8.62152 296.068 14.1584 297.85C15.0437 303.356 18.05 307.867 21.9298 310.344C22.0103 310.522 22.0908 310.698 22.1737 310.874C26.3801 320.3 32.9396 329.469 42.5125 334.178C42.4675 334.192 42.4226 334.209 42.3752 334.222C42.1811 334.285 41.9869 334.343 41.7952 334.398C41.7786 334.403 41.7621 334.407 41.7455 334.412C41.317 334.53 40.9005 334.627 40.4886 334.701C40.4838 334.701 40.4815 334.701 40.4767 334.703C40.4436 334.708 40.4104 334.715 40.3796 334.719C39.6766 334.842 38.9972 334.899 38.332 334.899Z" fill="#F36429"/>
<path d="M51.6306 332.223C49.886 330.199 48.6645 327.927 47.72 325.529C48.7095 327.907 49.9665 330.164 51.6306 332.223ZM46.766 326.758C44.9812 324.027 43.6674 320.969 42.5785 317.829C42.6282 317.815 42.6756 317.801 42.7229 317.785C43.9041 320.849 45.251 323.847 46.766 326.758Z" fill="#F36429"/>
<path d="M42.512 334.178C32.9391 329.469 26.3797 320.299 22.1732 310.873C22.0904 310.698 22.0099 310.522 21.9294 310.344C23.3994 311.285 24.9949 311.929 26.6495 312.228C30.0962 320.646 35.0814 328.598 42.5144 334.178H42.512ZM21.2121 293.762C20.5043 291.617 19.9173 289.068 19.335 286.293C19.148 285.406 18.9633 284.497 18.7739 283.569C17.9833 285.089 16.8068 285.999 15.5451 286.346C14.6906 277.144 15.5617 267.795 18.3384 258.997C18.0449 262.838 18.6225 266.436 20.6535 268.885C19.5125 277.128 19.7492 285.542 21.2121 293.762ZM24.0741 248.388C23.8042 248.051 23.5343 247.725 23.2716 247.42C23.9225 246.181 24.6185 244.926 25.3618 243.688C24.8836 245.243 24.4528 246.81 24.0741 248.388Z" fill="#F1502D"/>
<path d="M51.6302 332.223C49.7932 330.828 48.2214 329.062 46.9502 327.112C46.8887 326.994 46.8271 326.876 46.7656 326.758C48.0936 328.789 49.682 330.643 51.6302 332.223ZM47.7196 325.529C46.5384 322.698 45.7383 319.696 45.0778 316.66C45.0991 316.646 45.1204 316.632 45.1394 316.618C45.4187 317.808 45.7099 318.998 46.0152 320.184C46.5005 322.002 47.0378 323.798 47.7196 325.529Z" fill="#F1502D"/>
<path d="M51.63 332.223C49.6818 330.643 48.0934 328.789 46.7654 326.758C45.2504 323.847 43.9036 320.849 42.7223 317.785C43.5272 317.533 44.3178 317.161 45.0777 316.66C45.7381 319.696 46.5382 322.698 47.7194 325.529C48.6639 327.927 49.8854 330.199 51.63 332.223Z" fill="#F1502D"/>
<path d="M83.9835 334.899C82.1702 334.899 80.2054 334.086 77.8051 332.21C78.6573 331.574 79.4503 330.858 80.1818 330.079C83.4177 330.795 86.6939 331.315 90.0079 331.62C89.035 332.519 88.0124 333.372 86.9401 334.178C86.9401 334.178 86.9401 334.178 86.9377 334.176C85.9672 334.645 84.999 334.899 83.9835 334.899Z" fill="#F36429"/>
<path d="M87.0051 334.199C87.0037 334.199 87.0024 334.199 87.001 334.198C87.0024 334.199 87.0037 334.199 87.0051 334.199Z" fill="#F08E73"/>
<path d="M91.1151 334.897C89.8202 334.897 88.4685 334.678 87.008 334.199C87.0056 334.199 87.0033 334.199 87.0009 334.197C86.9796 334.192 86.9607 334.185 86.9394 334.178C88.4047 333.457 89.7989 332.63 91.1246 331.715C93.1082 331.87 95.1062 331.949 97.1183 331.949C97.9728 331.949 98.8344 331.935 99.6937 331.907C96.6993 333.76 94.0527 334.897 91.1151 334.897Z" fill="#F36429"/>
<path d="M86.9394 334.178C88.0117 333.372 89.0343 332.519 90.0072 331.62C90.3789 331.655 90.7505 331.687 91.1246 331.715C89.7989 332.63 88.4047 333.457 86.9394 334.178Z" fill="#F1502D"/>
<path d="M77.8051 332.209C78.6388 331.542 79.4062 330.823 80.1143 330.063C80.138 330.067 80.1594 330.074 80.183 330.079C79.4512 330.858 78.6577 331.574 77.8051 332.209Z" fill="#F36429"/>
<path d="M77.8051 332.209C78.4091 331.47 78.9609 330.705 79.463 329.915C79.482 329.919 79.5009 329.924 79.5199 329.929C79.0106 330.719 78.4422 331.482 77.8051 332.209Z" fill="#F1502D"/>
<path d="M77.8051 332.209C78.4422 331.482 79.0106 330.719 79.5199 329.929C79.7188 329.975 79.9154 330.019 80.1143 330.063C79.4062 330.823 78.6388 331.542 77.8051 332.209Z" fill="#F1502D"/>
<path d="M61.9036 333.654C60.178 332.226 59.0417 330.169 58.3102 328.041C57.7516 326.051 57.2213 323.75 56.729 321.196C57.5314 321.628 58.3339 322.047 59.1435 322.453C59.366 326.389 59.4536 330.356 61.9036 333.654Z" fill="#F1502D"/>
<path d="M67.5848 333.564C69.0477 331.609 69.6584 329.409 69.9614 327.119C70.3969 327.273 70.8325 327.426 71.2681 327.574C70.5413 329.862 69.469 331.999 67.5848 333.564Z" fill="#F1502D"/>
<path d="M46.4444 266.755C42.219 271.492 39.9086 281.255 40.3465 287.365C40.3986 288.065 40.5974 288.909 41.3242 289.133C42.1124 289.378 42.8557 288.703 43.3552 288.093C44.4465 286.758 45.4786 285.38 46.4444 283.966C47.4126 285.38 48.4423 286.758 49.536 288.093C50.0331 288.703 50.7787 289.378 51.567 289.133C52.2937 288.909 52.4926 288.065 52.5423 287.365C52.9826 281.255 50.6722 271.492 46.4444 266.755Z" fill="#040606"/>
<path d="M40.8136 280.25C41.6918 275.229 43.6495 269.891 46.4451 266.755C46.483 266.796 46.5209 266.838 46.5587 266.882C46.5209 266.838 46.483 266.796 46.4451 266.755C43.6495 269.891 41.6918 275.229 40.8136 280.25Z" fill="#F46C26"/>
<path d="M40.3486 284.1C40.4267 282.875 40.5807 281.583 40.8104 280.269C40.5807 281.583 40.4267 282.875 40.3486 284.1Z" fill="#F25A2B"/>
<path d="M41.6604 289.184C41.5491 289.184 41.4379 289.168 41.3242 289.133C41.2414 289.108 41.1656 289.073 41.097 289.034C40.5549 288.719 40.3916 287.987 40.3466 287.365C40.3135 286.875 40.2945 286.362 40.2945 285.831C40.2945 285.274 40.3135 284.694 40.349 284.1C40.4271 282.875 40.5809 281.583 40.8106 280.269C40.8106 280.262 40.8129 280.257 40.8129 280.25C41.6912 275.229 43.6488 269.891 46.4445 266.755C46.4823 266.796 46.5202 266.838 46.5581 266.882C46.9794 267.369 47.3795 267.915 47.763 268.492C45.545 272.654 43.8926 277.313 43.7151 282.212C43.663 283.709 43.7577 285.255 44.2998 286.607L44.3803 286.783C44.0418 287.222 43.708 287.663 43.3553 288.093C42.9292 288.615 42.3208 289.184 41.6604 289.184Z" fill="#6B1C16"/>
<path d="M51.228 289.184C50.5676 289.184 49.9616 288.615 49.5355 288.093C48.4419 286.757 47.4121 285.38 46.4439 283.966L48.0986 282.776C48.0986 282.776 50.1935 284.611 52.5702 284.733C52.608 285.66 52.601 286.547 52.5418 287.365C52.4921 288.065 52.2932 288.909 51.5665 289.133C51.4529 289.168 51.3393 289.184 51.228 289.184Z" fill="#6B1C16"/>
<path d="M52.5235 305.147L52.6158 305.119L52.5235 305.147ZM40.3775 305.138L40.297 305.115L40.3775 305.138ZM84.8663 274.727C84.6509 276.449 84.2437 279.372 83.5312 282.198C82.2482 287.289 76.4865 288.176 74.1004 283.682V283.679L71.9912 293.034C69.0725 303.918 62.9652 300.856 56.9407 295.696L56.936 295.705C55.1298 300.424 49.9622 301.692 46.7476 298.187L46.5014 297.921L46.1463 298.296C42.9341 301.716 37.9204 300.493 36.0195 295.897L35.9225 295.675C23.5705 306.642 21.4874 296.911 18.7746 283.569C16.4145 288.112 10.5984 287.234 9.3414 282.108C8.66438 279.342 8.27616 276.486 8.03234 274.727C5.51839 282.667 5.74561 295.144 14.1586 297.85C15.657 307.158 23.2131 313.626 30.8046 312.223C34.3246 318.314 41.3859 320.272 46.4564 315.574C51.4015 320.293 58.787 318.206 62.1058 312.191C70.0146 313.744 77.244 306.707 78.7519 297.803C87.0914 295.197 87.3945 282.616 84.8663 274.727Z" fill="#040606"/>
<path d="M8.61665 278.582C8.36797 277.151 8.18562 275.848 8.04825 274.861C8.18562 275.846 8.36797 277.149 8.61665 278.572C8.61665 278.575 8.61665 278.577 8.61665 278.582Z" fill="#F25A2B"/>
<path d="M14.1587 297.849C8.6219 296.068 6.62878 290.055 6.63115 283.887C6.63352 280.685 7.17322 277.442 8.0325 274.727C8.03724 274.771 8.04436 274.817 8.04909 274.861C8.18639 275.848 8.36864 277.151 8.61719 278.582C8.487 280.911 8.4894 283.284 8.94626 285.556C10.8045 294.818 14.1587 297.849 14.1587 297.849Z" fill="#6B1C16"/>
<path d="M14.3356 286.517C13.2869 286.517 12.2478 286.154 11.3719 285.451C11.3577 285.439 11.3482 285.432 11.3482 285.432V285.414C12.2336 286.135 13.2893 286.508 14.3498 286.508C14.7499 286.508 15.1523 286.455 15.5452 286.346C15.5452 286.348 15.5452 286.348 15.5452 286.351C15.1475 286.462 14.7404 286.517 14.3356 286.517Z" fill="#F25A2B"/>
<path d="M15.5447 286.351C15.5447 286.348 15.5447 286.348 15.5447 286.346C16.8064 285.999 17.9829 285.089 18.7735 283.568C17.9853 285.089 16.8088 286.002 15.5447 286.351ZM19.3346 286.293C19.1476 285.405 18.9629 284.497 18.7735 283.568C18.9629 284.497 19.1476 285.405 19.3346 286.293Z" fill="#F1502D"/>
<path d="M17.0909 287.888C13.4147 287.123 11.5896 285.639 11.3718 285.452C12.2477 286.154 13.2868 286.517 14.3355 286.517C14.7403 286.517 15.1474 286.462 15.5451 286.351C16.8092 286.002 17.9857 285.089 18.7739 283.569C18.9633 284.498 19.148 285.406 19.335 286.293C18.5301 287.372 17.0909 287.888 17.0909 287.888Z" fill="#6B1C16"/>
<path d="M31.3421 299.09V299.088C32.5399 298.406 33.8726 297.44 35.3592 296.165C33.875 297.44 32.5423 298.406 31.3421 299.09Z" fill="#F46C26"/>
<path d="M27.2228 300.419C26.8748 300.419 26.5457 300.382 26.2285 300.311C26.1196 300.283 26.0604 300.267 26.0604 300.267L26.0581 300.255C26.4297 300.357 26.8203 300.408 27.2346 300.408C28.4016 300.408 29.7533 299.994 31.3416 299.087V299.089C29.7509 300.001 28.3922 300.419 27.2228 300.419Z" fill="#F25A2B"/>
<path d="M37.1755 297.87C36.7302 297.316 36.3441 296.669 36.0362 295.938C36.3418 296.664 36.7326 297.297 37.1755 297.849L37.1778 297.87C37.1778 297.87 37.1778 297.87 37.1755 297.87ZM36.0339 295.931C36.0291 295.92 36.0244 295.908 36.0196 295.897C36.0244 295.908 36.0291 295.92 36.0339 295.931Z" fill="#F46C26"/>
<path d="M30.1605 300.798C28.3922 300.798 26.747 300.435 26.2286 300.31C26.5458 300.382 26.8748 300.419 27.2228 300.419C28.3922 300.419 29.7509 300.001 31.3417 299.09C32.5418 298.406 33.8746 297.44 35.3588 296.165C35.5458 296.005 35.7328 295.844 35.9222 295.675L36.0192 295.897C36.024 295.908 36.0287 295.92 36.0335 295.931C36.0335 295.934 36.0358 295.936 36.0358 295.938C36.3436 296.669 36.7294 297.316 37.1745 297.87C37.1318 297.912 34.8404 300.052 32.1489 300.613C31.505 300.747 30.8256 300.798 30.1605 300.798Z" fill="#6B1C16"/>
<path d="M40.1118 318.185C36.5256 318.185 32.9842 315.997 30.8041 312.223C30.8041 312.223 34.8472 316.498 41.2599 316.498C42.853 316.498 44.5953 316.235 46.4559 315.574C46.0109 315.985 45.5516 316.348 45.0782 316.66C44.3183 317.161 43.5277 317.533 42.7229 317.785C42.6755 317.802 42.6281 317.815 42.5784 317.829C41.7641 318.07 40.9356 318.185 40.1118 318.185Z" fill="#6B1C16"/>
<path d="M46.8319 315.913C46.8295 315.913 46.8272 315.911 46.8272 315.911C46.8272 315.911 46.8295 315.913 46.8319 315.913ZM46.8083 315.895C46.8059 315.893 46.8035 315.89 46.7988 315.888C46.8035 315.89 46.8059 315.893 46.8083 315.895ZM46.7869 315.876C46.7822 315.872 46.7774 315.867 46.7727 315.865C46.7774 315.867 46.7822 315.872 46.7869 315.876ZM46.7632 315.856C46.7632 315.853 46.7609 315.853 46.7585 315.851C46.7609 315.853 46.7632 315.856 46.7632 315.856ZM46.7206 315.816C46.7182 315.816 46.7182 315.816 46.7182 315.816C46.7182 315.816 46.7182 315.816 46.7206 315.816ZM46.543 315.657C46.5145 315.629 46.4838 315.601 46.4554 315.573C46.4838 315.601 46.5145 315.629 46.543 315.657Z" fill="#F25A2B"/>
<path d="M52.7236 318.16C50.6666 318.16 48.6095 317.453 46.8317 315.913C46.8293 315.913 46.827 315.911 46.827 315.911C46.8199 315.907 46.8152 315.9 46.8081 315.895C46.8057 315.893 46.8033 315.89 46.7986 315.888C46.7962 315.883 46.7915 315.879 46.7867 315.876C46.782 315.872 46.7773 315.867 46.7725 315.865C46.7702 315.863 46.7678 315.858 46.763 315.856C46.763 315.856 46.7607 315.853 46.7584 315.851C46.7465 315.84 46.7323 315.828 46.7204 315.816C46.7181 315.816 46.7181 315.816 46.7181 315.816C46.6826 315.784 46.6447 315.749 46.6092 315.717C46.5879 315.696 46.5642 315.675 46.5429 315.657C46.5145 315.629 46.4838 315.602 46.4554 315.574C46.4554 315.574 48.4603 316.378 51.4193 316.378C54.3168 316.378 58.1279 315.608 61.8751 312.563C59.7707 316.085 56.2507 318.16 52.7236 318.16Z" fill="#6B1C16"/>
<path d="M84.8282 275.03C84.8282 275.028 84.8282 275.028 84.8282 275.025L84.8661 274.727C84.8543 274.824 84.8424 274.926 84.8282 275.03Z" fill="#F46C26"/>
<path d="M78.7511 297.803C78.7511 297.803 86.5699 293.256 84.8276 275.03C84.8418 274.926 84.8537 274.824 84.8656 274.727C85.7248 277.408 86.2574 280.631 86.2574 283.82C86.2598 290.016 84.2548 296.082 78.7511 297.803Z" fill="#6B1C16"/>
<path d="M78.5275 286.589C77.7317 286.589 76.9311 286.381 76.1993 285.95C76.1993 285.948 76.1993 285.948 76.1993 285.946C76.9287 286.374 77.7269 286.582 78.5204 286.582C78.8069 286.582 79.0959 286.554 79.3777 286.499L79.3801 286.506L79.3564 286.513C79.0817 286.563 78.8046 286.589 78.5275 286.589Z" fill="#F46C26"/>
<path d="M76.2003 285.951C75.3832 285.473 74.6513 284.722 74.0995 283.682C74.6513 284.722 75.3832 285.47 76.2003 285.946C76.2003 285.949 76.2003 285.949 76.2003 285.951Z" fill="#F25A2B"/>
<path d="M73.0515 288.334L74.1002 283.68V283.682C74.6518 284.722 75.3832 285.473 76.1999 285.951C76.9313 286.381 77.7314 286.589 78.5268 286.589C78.8038 286.589 79.0807 286.563 79.3553 286.513L73.0515 288.334Z" fill="#6B1C16"/>
<path d="M64.9889 300.331C62.8608 300.047 60.5126 298.594 58.143 296.694C60.5149 298.596 62.8655 300.047 64.996 300.329L64.9936 300.331C64.9913 300.331 64.9889 300.331 64.9889 300.331Z" fill="#F46C26"/>
<path d="M55.3761 298.236L55.3666 298.229C55.9967 297.561 56.5343 296.738 56.918 295.754C56.5343 296.738 56.0038 297.568 55.3761 298.236ZM58.1448 296.694C57.8559 296.463 57.567 296.225 57.278 295.98C57.567 296.225 57.8559 296.463 58.1448 296.694ZM57.2662 295.971C57.2614 295.966 57.2567 295.964 57.2519 295.959C57.2567 295.964 57.2614 295.969 57.2662 295.971ZM57.2307 295.941C57.2259 295.939 57.2235 295.936 57.2188 295.932C57.2235 295.936 57.2259 295.939 57.2307 295.941ZM57.1951 295.911C57.1904 295.908 57.188 295.906 57.1856 295.904C57.188 295.906 57.1904 295.908 57.1951 295.911ZM57.1596 295.883C57.1572 295.878 57.1548 295.876 57.1501 295.874C57.1548 295.876 57.1572 295.878 57.1596 295.883ZM57.124 295.851C57.1217 295.848 57.1193 295.848 57.117 295.846C57.1193 295.848 57.1217 295.848 57.124 295.851ZM57.0885 295.821C57.0862 295.818 57.0838 295.818 57.0814 295.816C57.0838 295.818 57.0862 295.818 57.0885 295.821ZM57.053 295.791C57.0506 295.788 57.0483 295.788 57.0459 295.786C57.0483 295.788 57.0506 295.788 57.053 295.791ZM57.0175 295.761C57.0151 295.758 57.0127 295.758 57.0103 295.756C57.0127 295.758 57.0151 295.758 57.0175 295.761ZM56.9204 295.749C56.9275 295.735 56.9322 295.719 56.937 295.705C56.9322 295.719 56.9275 295.735 56.9204 295.749ZM56.9796 295.728L56.9772 295.726L56.9796 295.728Z" fill="#F25A2B"/>
<path d="M63.0139 300.449C58.1328 300.447 55.4011 298.256 55.375 298.236C56.0023 297.568 56.5326 296.738 56.9161 295.754C56.9184 295.754 56.9184 295.751 56.9184 295.749C56.9255 295.735 56.9303 295.719 56.935 295.705L56.9398 295.696C56.9516 295.705 56.9634 295.717 56.9752 295.726L56.9776 295.728C56.9894 295.737 56.9989 295.747 57.0084 295.756C57.0107 295.758 57.0131 295.758 57.0155 295.761C57.0249 295.77 57.0344 295.777 57.0439 295.786C57.0463 295.788 57.0486 295.788 57.051 295.791C57.0605 295.8 57.0699 295.807 57.0794 295.816C57.0817 295.818 57.0841 295.818 57.0865 295.821C57.096 295.83 57.1055 295.837 57.1149 295.846C57.1173 295.848 57.1196 295.848 57.122 295.851C57.1291 295.86 57.1386 295.867 57.148 295.874C57.1528 295.876 57.1551 295.878 57.1575 295.883C57.167 295.89 57.1741 295.897 57.1835 295.904C57.1859 295.906 57.1883 295.908 57.193 295.911C57.2001 295.918 57.2096 295.925 57.2167 295.932C57.2214 295.936 57.2238 295.939 57.2285 295.941C57.2356 295.948 57.2427 295.955 57.2498 295.959C57.2545 295.964 57.2593 295.966 57.264 295.971C57.2664 295.976 57.2711 295.978 57.2759 295.98C57.5647 296.225 57.8534 296.463 58.1422 296.694C60.5118 298.594 62.8601 300.047 64.9882 300.331C64.2946 300.412 63.6365 300.449 63.0139 300.449Z" fill="#6B1C16"/>
<path d="M27.0777 272.007C14.8323 270.753 17.6067 255.097 21.9883 246.05C24.9875 248.945 28.936 255.164 31.1328 259.751C36.0683 270.057 34.3118 272.259 27.0777 272.007Z" fill="#040606"/>
<path d="M21.2854 247.593V247.591C21.2854 247.593 21.2854 247.593 21.2854 247.593ZM21.3068 247.542C21.3068 247.54 21.3068 247.54 21.3091 247.538L21.3068 247.542ZM21.3281 247.491C21.3304 247.489 21.3304 247.484 21.3328 247.482C21.3304 247.484 21.3304 247.489 21.3281 247.491ZM21.3518 247.441C21.3518 247.436 21.3541 247.429 21.3565 247.427C21.3541 247.431 21.3518 247.436 21.3518 247.441ZM21.3731 247.387C21.3755 247.383 21.3778 247.376 21.3802 247.369C21.3778 247.376 21.3755 247.383 21.3731 247.387ZM21.3967 247.334C21.3991 247.327 21.4015 247.323 21.4039 247.318C21.4015 247.323 21.3991 247.327 21.3967 247.334ZM21.4205 247.279C21.4228 247.274 21.4252 247.269 21.4276 247.265C21.4252 247.269 21.4228 247.274 21.4205 247.279ZM21.4417 247.235C21.4441 247.225 21.4489 247.219 21.4512 247.209C21.4489 247.219 21.4441 247.225 21.4417 247.235ZM21.4631 247.184C21.4678 247.175 21.4702 247.165 21.4749 247.156C21.4702 247.165 21.4678 247.175 21.4631 247.184ZM21.4844 247.133C21.4891 247.126 21.4915 247.119 21.4938 247.112C21.4915 247.119 21.4891 247.126 21.4844 247.133ZM21.5104 247.077C21.5128 247.07 21.5152 247.064 21.5199 247.059C21.5152 247.064 21.5128 247.07 21.5104 247.077ZM21.5341 247.027C21.5365 247.02 21.5389 247.01 21.5436 247.003C21.5389 247.01 21.5365 247.02 21.5341 247.027ZM21.5578 246.971C21.5602 246.964 21.5649 246.957 21.5673 246.95C21.5649 246.957 21.5602 246.964 21.5578 246.971ZM21.5768 246.927C21.5815 246.918 21.5862 246.909 21.591 246.897C21.5862 246.906 21.5815 246.918 21.5768 246.927ZM21.6052 246.867C21.6076 246.86 21.6099 246.855 21.6146 246.848C21.6099 246.855 21.6076 246.86 21.6052 246.867ZM21.6265 246.821C21.6289 246.811 21.6336 246.802 21.6383 246.793C21.6336 246.802 21.6289 246.811 21.6265 246.821ZM21.6502 246.767C21.6526 246.761 21.6573 246.754 21.6597 246.744C21.6573 246.751 21.6526 246.761 21.6502 246.767ZM21.6738 246.717C21.6762 246.707 21.681 246.7 21.6857 246.693C21.681 246.7 21.6762 246.71 21.6738 246.717ZM21.6999 246.661C21.6999 246.656 21.7047 246.652 21.707 246.647C21.7047 246.652 21.7023 246.656 21.6999 246.661ZM21.7236 246.61C21.726 246.603 21.7283 246.599 21.7307 246.592C21.7283 246.599 21.726 246.606 21.7236 246.61ZM21.7473 246.557C21.7496 246.552 21.752 246.548 21.7544 246.543C21.752 246.548 21.7496 246.552 21.7473 246.557ZM21.771 246.504C21.7734 246.499 21.7757 246.495 21.7781 246.49C21.7757 246.495 21.7734 246.499 21.771 246.504ZM21.7946 246.455C21.797 246.451 21.797 246.448 21.7994 246.444C21.7994 246.448 21.797 246.451 21.7946 246.455ZM21.8183 246.407C21.8183 246.402 21.8207 246.4 21.8231 246.395C21.8207 246.397 21.8183 246.402 21.8183 246.407ZM21.842 246.356C21.8444 246.351 21.8444 246.349 21.8468 246.347C21.8444 246.349 21.842 246.351 21.842 246.356ZM21.8657 246.307C21.8681 246.303 21.8681 246.298 21.8704 246.293C21.8681 246.298 21.8681 246.303 21.8657 246.307ZM21.8894 246.254C21.8918 246.252 21.8918 246.247 21.8941 246.245C21.8941 246.247 21.8918 246.252 21.8894 246.254ZM21.9131 246.203C21.9154 246.198 21.9178 246.196 21.9178 246.194C21.9178 246.196 21.9154 246.201 21.9131 246.203ZM21.9391 246.152C21.9391 246.15 21.9415 246.145 21.9415 246.143C21.9415 246.148 21.9391 246.15 21.9391 246.152ZM21.9628 246.101C21.9652 246.099 21.9652 246.097 21.9675 246.094C21.9652 246.097 21.9628 246.099 21.9628 246.101ZM22.0102 246.069C22.0031 246.062 21.996 246.055 21.9889 246.048C21.996 246.055 22.0031 246.062 22.0102 246.069Z" fill="#F25A2B"/>
<path d="M24.8534 271.573C15.8699 268.908 17.5885 256.393 21.1724 247.859C21.2103 247.769 21.2482 247.681 21.286 247.593C21.286 247.593 21.286 247.593 21.286 247.591C21.2931 247.575 21.3003 247.558 21.3074 247.542L21.3097 247.538C21.3168 247.522 21.3215 247.508 21.3286 247.491C21.331 247.489 21.331 247.485 21.3334 247.482C21.3381 247.468 21.3452 247.455 21.3523 247.441C21.3523 247.436 21.3547 247.431 21.3571 247.427C21.3618 247.413 21.3689 247.401 21.3736 247.387C21.376 247.383 21.3783 247.376 21.3807 247.369C21.3878 247.357 21.3926 247.346 21.3973 247.334C21.3997 247.327 21.402 247.323 21.4044 247.318C21.4115 247.304 21.4162 247.293 21.421 247.279C21.4233 247.274 21.4257 247.27 21.4281 247.265C21.4328 247.256 21.4375 247.244 21.4422 247.235C21.4446 247.226 21.4494 247.219 21.4517 247.21C21.4565 247.2 21.4588 247.191 21.4636 247.184C21.4683 247.175 21.4707 247.166 21.4754 247.156C21.4802 247.149 21.4825 247.14 21.4849 247.133C21.4896 247.126 21.492 247.119 21.4943 247.113C21.5014 247.101 21.5062 247.087 21.5109 247.078C21.5133 247.071 21.5157 247.064 21.5204 247.059C21.5251 247.048 21.5299 247.036 21.5346 247.027C21.537 247.02 21.5393 247.011 21.5441 247.004C21.5488 246.995 21.5535 246.983 21.5582 246.972C21.5606 246.965 21.5653 246.958 21.5677 246.951C21.5701 246.944 21.5748 246.937 21.5772 246.928C21.5819 246.918 21.5867 246.907 21.5914 246.898C21.5961 246.888 21.6009 246.879 21.6056 246.868C21.608 246.861 21.6103 246.856 21.615 246.849C21.6174 246.84 21.6222 246.831 21.6269 246.821C21.6293 246.812 21.634 246.803 21.6387 246.794C21.6435 246.784 21.6459 246.777 21.6506 246.768C21.653 246.761 21.6577 246.752 21.6601 246.745C21.6648 246.736 21.6695 246.727 21.6742 246.717C21.6766 246.71 21.6813 246.701 21.6861 246.694C21.6884 246.683 21.6956 246.671 21.7003 246.662C21.7027 246.657 21.705 246.653 21.7074 246.648C21.7121 246.634 21.7169 246.623 21.724 246.611C21.7264 246.606 21.7287 246.6 21.731 246.593C21.7358 246.581 21.7429 246.569 21.7476 246.558C21.75 246.553 21.7524 246.549 21.7547 246.544C21.7595 246.53 21.7666 246.519 21.7713 246.505C21.7737 246.5 21.7761 246.495 21.7784 246.491C21.7832 246.479 21.7902 246.468 21.795 246.456C21.7973 246.452 21.7997 246.449 21.7997 246.445C21.8068 246.433 21.8116 246.419 21.8187 246.408C21.8187 246.403 21.821 246.398 21.8234 246.396C21.8305 246.382 21.8352 246.368 21.8423 246.357C21.8423 246.352 21.8447 246.35 21.8471 246.348C21.8518 246.334 21.8589 246.32 21.866 246.308C21.8684 246.304 21.8684 246.299 21.8707 246.294C21.8778 246.281 21.8826 246.269 21.8897 246.255C21.892 246.253 21.8944 246.248 21.8944 246.246C21.9015 246.232 21.9086 246.218 21.9133 246.204C21.9157 246.202 21.9181 246.197 21.9181 246.195C21.9252 246.181 21.9323 246.167 21.9394 246.153C21.9394 246.151 21.9418 246.149 21.9418 246.144C21.9489 246.13 21.956 246.117 21.9631 246.103C21.9631 246.1 21.9654 246.098 21.9678 246.096C21.9749 246.08 21.982 246.066 21.9891 246.05C21.9962 246.056 22.0033 246.063 22.0104 246.07C22.7561 246.796 23.5633 247.725 24.3847 248.783C22.1217 253.343 21.563 259.034 22.1288 264.349C22.3134 266.073 22.614 267.818 23.3455 269.322C23.7503 270.159 24.2782 270.891 24.8534 271.573Z" fill="#6B1C16"/>
<path d="M65.8097 272.007C78.0575 270.753 75.2808 255.097 70.9015 246.05C67.9023 248.945 63.9538 255.164 61.7571 259.751C56.8215 270.057 58.578 272.259 65.8097 272.007Z" fill="#040606"/>
<path d="M70.9223 246.093C70.9203 246.091 70.9203 246.089 70.9182 246.087C70.9203 246.089 70.9223 246.091 70.9223 246.093Z" fill="#F25A2B"/>
<path d="M64.7939 272.026C60.9851 272.026 58.9682 271.143 58.9635 268.34C58.9587 266.452 59.8677 263.695 61.7567 259.751C63.9535 255.164 67.902 248.945 70.9012 246.05C70.9083 246.063 70.913 246.075 70.9177 246.087C70.9201 246.089 70.9201 246.091 70.9225 246.093C71.3225 246.923 71.7108 247.808 72.0729 248.733C72.0682 248.739 55.647 271.735 66.529 271.903C66.2922 271.94 66.0579 271.982 65.8094 272.007C65.4567 272.019 65.1205 272.026 64.7939 272.026Z" fill="#6B1C16"/>
<path d="M114.591 256.638C114.039 256.638 113.454 256.291 113.007 255.924C109.664 253.169 108.069 248.947 105.598 245.423C105.022 244.601 104.395 243.815 103.72 243.069C101.633 239.667 99.1708 236.395 96.2236 233.802C96.2994 233.797 96.3751 233.795 96.4509 233.795C97.161 233.795 97.8617 234.005 98.5364 234.234C103.058 235.773 107.245 238.35 110.379 241.883C113.516 245.414 115.559 249.918 115.819 254.584C115.857 255.288 115.786 256.127 115.163 256.488C114.984 256.592 114.789 256.638 114.591 256.638ZM97.3717 238.239C95.6318 237.391 93.6742 236.282 94.2636 234.983C94.3252 234.849 94.4033 234.724 94.4956 234.613C95.5371 235.741 96.4887 236.959 97.3717 238.239Z" fill="#F9B018"/>
<path d="M103.72 243.069C102.458 241.671 101.036 240.411 99.4853 239.323C99.0758 239.034 98.2496 238.669 97.3713 238.239C96.4884 236.959 95.5368 235.741 94.4952 234.613C94.8929 234.128 95.551 233.851 96.1996 233.804C96.2067 233.804 96.2162 233.802 96.2233 233.802C99.1704 236.395 101.632 239.667 103.72 243.069Z" fill="#F7901E"/>
<path d="M23.0854 170.506C24.3565 180.015 27.3297 189.307 31.8321 197.832C33.5696 201.125 35.5722 204.35 38.3489 206.879C41.1233 209.404 44.7711 211.188 48.5657 211.133C51.1506 211.096 53.7972 210.13 55.4423 208.184C58.7162 204.316 57.0023 198.546 55.0873 193.892C51.198 184.447 47.0672 175.072 41.9399 166.21L23.0854 170.506Z" fill="#EAE7FD"/>
<path d="M86.0528 159.67C78.279 165.912 72.2829 174.242 68.9049 183.497C67.2526 188.029 66.2158 192.953 67.2976 197.644C68.3794 202.335 71.987 206.703 76.8279 207.597C82.5067 208.644 87.8684 204.907 92.1577 201.127C99.915 194.291 107.028 186.309 110.411 176.655L86.0528 159.67Z" fill="#EAE7FD"/>
<path d="M23.0854 170.506C25.6277 181.265 38.0554 217.98 53.6599 206.747C57.071 201.85 53.3971 195.906 51.6359 190.402C48.5846 182.284 45.4434 174.235 41.9376 166.21C47.169 173.302 51.3376 181.108 55.0517 189.027C57.7243 194.825 62.338 203.264 57.2272 209.621C55.3264 211.87 52.5922 213.037 49.9197 213.356C30.7763 214.592 23.5115 184.814 23.0854 170.506Z" fill="#9273C0"/>
<path d="M86.0519 159.67C76.9548 168.909 65.7722 186.212 70.1728 199.063C72.2559 204.401 78.2946 207.216 83.6468 204.38C87.3325 202.807 90.6134 199.835 93.9724 196.995C100.544 191.202 106.516 184.694 110.41 176.655C108.393 185.387 102.866 193.136 96.5503 199.578C91.8017 204.369 85.6944 210.386 77.9087 209.998C69.5147 209.624 64.1176 200.799 64.6218 193.432C65.7201 179.62 74.7249 167.176 86.0519 159.67Z" fill="#9273C0"/>
<path d="M47.7392 208.859C42.8722 208.859 38.4503 204.635 34.722 198.892C38.7273 201.637 43.0853 203.551 47.796 203.551C49.9359 203.551 52.1492 203.156 54.4359 202.264C54.649 202.125 54.8549 201.984 55.0561 201.839C55.1082 203.549 54.7365 205.198 53.6595 206.747C51.6261 208.21 49.6495 208.859 47.7392 208.859Z" fill="#D9BFE4"/>
<path d="M48.3952 211.135C44.6621 211.135 41.0829 209.367 38.3489 206.878C35.5721 204.353 33.5695 201.127 31.8296 197.831C31.5219 197.244 31.2757 196.627 30.9822 196.033C32.1918 197.048 33.4393 198.012 34.7223 198.892C38.4506 204.634 42.8725 208.859 47.7394 208.859C49.6498 208.859 51.6264 208.209 53.6598 206.747C54.7368 205.198 55.1085 203.548 55.0564 201.838C55.7736 201.318 56.4223 200.752 57.0188 200.154C57.5348 203.077 57.3336 205.947 55.4423 208.184C53.7971 210.13 51.1505 211.093 48.5656 211.133C48.5088 211.133 48.452 211.135 48.3952 211.135Z" fill="#9273C0"/>
<path d="M79.2325 205.504C75.3101 205.504 71.693 202.952 70.1733 199.063C70.0171 198.606 69.8798 198.141 69.7614 197.672C73.3382 199.179 76.8913 199.84 80.3924 199.84C85.2215 199.84 89.9464 198.583 94.4866 196.54C94.3162 196.69 94.1458 196.842 93.9729 196.995C90.6139 199.835 87.333 202.807 83.6473 204.38C82.1938 205.15 80.6931 205.504 79.2325 205.504Z" fill="#D9BFE4"/>
<path d="M78.7908 207.775C78.1422 207.775 77.4865 207.717 76.826 207.597C71.9851 206.705 68.3776 202.335 67.2958 197.644C67.1988 197.226 67.1372 196.805 67.0756 196.382C67.9704 196.868 68.8676 197.298 69.76 197.672C69.8784 198.141 70.0157 198.605 70.1719 199.063C71.6916 202.952 75.3087 205.503 79.2311 205.503C80.6917 205.503 82.1924 205.15 83.6459 204.38C87.3316 202.807 90.6125 199.835 93.9716 196.995C94.1444 196.842 94.3148 196.69 94.4852 196.54C96.1896 195.77 97.8703 194.892 99.5179 193.928C97.2027 196.461 94.7243 198.864 92.1559 201.127C88.3637 204.468 83.7358 207.775 78.7908 207.775Z" fill="#9273C0"/>
<path d="M58.9218 127.607C61.0357 126.551 62.939 125.111 65.0978 124.143C67.2567 123.175 69.8393 122.722 71.9792 123.725C73.9889 124.663 75.2246 126.699 75.9608 128.751C78.2262 135.055 76.581 142.537 71.8656 147.379C66.047 153.352 56.3605 154.787 48.3855 152.074C40.4128 149.361 34.1043 143.064 30.0138 135.852C28.3805 132.977 27.0264 129.754 27.4265 126.489C27.694 124.312 30.1298 119.593 33.0982 120.208C35.1837 120.64 37.8326 125.151 39.9181 126.431C45.4999 129.862 52.9755 130.576 58.9218 127.607Z" fill="#2E2763"/>
</svg>
