<svg width="458" height="445" viewBox="0 0 458 445" fill="none" xmlns="http://www.w3.org/2000/svg">
<path fill-rule="evenodd" clip-rule="evenodd" d="M458 294.576C457.938 294.571 457.877 294.567 457.815 294.563V293.495C457.878 293.499 457.937 293.503 458 293.507V294.576Z" fill="white"/>
<path fill-rule="evenodd" clip-rule="evenodd" d="M30.4219 212.413L30.0409 212.102C28.3469 210.719 26.4369 209.322 24.4259 207.987C24.4959 207.903 24.5649 207.819 24.6349 207.736C26.5959 209.044 28.4589 210.409 30.1149 211.761L30.4949 212.072V212.071L30.4959 212.072L30.8129 211.697C35.4239 206.246 37.7499 203.537 42.4559 198.136L42.5769 197.998L42.6979 198.11L42.3789 198.476C37.6729 203.878 35.3479 206.587 30.7389 212.038L30.4219 212.413ZM0.455933 201.182C0.459933 200.943 0.541933 200.718 0.725933 200.48C1.00393 200.12 1.53493 199.765 2.25393 199.515C2.61993 199.387 3.03293 199.285 3.48093 199.216C3.70193 199.301 3.92493 199.388 4.14993 199.478C3.41593 199.528 2.74893 199.662 2.18993 199.858C1.47093 200.108 0.938934 200.463 0.660934 200.823C0.566934 200.945 0.499933 201.063 0.455933 201.182Z" fill="white"/>
<path fill-rule="evenodd" clip-rule="evenodd" d="M30.496 212.072L30.495 212.071L30.812 211.696C35.422 206.246 37.748 203.537 42.455 198.136L42.576 197.997L42.577 197.998L42.456 198.136C37.75 203.537 35.424 206.246 30.813 211.697L30.496 212.072ZM0.453979 201.188C0.456979 200.947 0.53898 200.72 0.72398 200.48C1.00198 200.12 1.53398 199.765 2.25298 199.515C2.96998 199.264 3.86798 199.113 4.85698 199.113C4.37298 199.113 3.91098 199.15 3.48098 199.216C3.03298 199.285 2.61998 199.387 2.25398 199.515C1.53498 199.765 1.00398 200.12 0.725979 200.48C0.541979 200.718 0.459978 200.943 0.455978 201.182C0.454978 201.184 0.453979 201.186 0.453979 201.188Z" fill="#5849BE"/>
<path fill-rule="evenodd" clip-rule="evenodd" d="M453.653 468.354L416.928 401.909C416.928 401.909 412.221 295.78 348.963 254.148C341.059 248.946 288.125 171.8 288.125 171.8C274.641 155.596 263.937 150.566 254.778 152.958C241.486 156.432 237.155 174.715 245.028 188.977L270.008 234.23C249.754 249.499 217.243 312.73 219.428 332.053C220.887 344.96 225.997 357.558 234.802 368.206L259.674 398.283L262.058 468.303L453.653 468.354Z" fill="#FA9199"/>
<path fill-rule="evenodd" clip-rule="evenodd" d="M452.792 468.357L416.264 402.276C416.208 402.174 416.175 402.06 416.17 401.942C416.158 401.678 414.89 375.108 405.928 343.817C397.674 314.996 381.019 276.153 348.546 254.782C340.607 249.56 289.663 175.385 287.499 172.23C275.074 157.305 264.414 151.224 254.97 153.692C250.026 154.984 246.072 158.566 243.836 163.777C240.639 171.228 241.351 180.743 245.693 188.61L270.671 233.864C270.854 234.195 270.766 234.609 270.464 234.836C250.416 249.949 217.99 312.585 220.182 331.968C221.67 345.13 226.929 357.494 235.387 367.724L260.259 397.801C260.365 397.929 260.427 398.09 260.432 398.257L262.61 468.369L452.792 468.357ZM262.168 468.347C262.101 468.346 262.034 468.349 261.969 468.351C261.635 468.363 261.341 468.375 261.329 468.034L258.924 398.568L234.217 368.689C225.57 358.232 220.196 345.594 218.674 332.138C216.467 312.618 248.699 250.005 269.028 234.027L244.365 189.343C239.8 181.075 239.063 171.05 242.441 163.179C244.867 157.528 249.18 153.637 254.587 152.225C264.667 149.593 275.827 155.837 288.707 171.315C289.278 172.141 341.688 248.454 349.38 253.514C382.251 275.147 399.073 314.353 407.395 343.432C416.013 373.535 417.55 399.298 417.677 401.695L454.57 468.357L262.168 468.347Z" fill="#FE6470"/>
<path fill-rule="evenodd" clip-rule="evenodd" d="M307.323 261.025L243.553 326.827C230.764 340.023 238.131 362.153 256.277 365.051L297.325 371.604L327.378 319.985L327.146 269.906C327.099 259.659 315.002 254.239 307.323 261.025Z" fill="#5849BE"/>
<path fill-rule="evenodd" clip-rule="evenodd" d="M348.045 212.538L370.519 218.619C381.498 221.591 392.965 214.517 396.13 202.819L397.323 198.409C400.488 186.712 394.153 174.821 383.174 171.85L360.7 165.769L348.045 212.538Z" fill="#5849BE"/>
<path fill-rule="evenodd" clip-rule="evenodd" d="M348.976 212.004L370.717 217.888C381.27 220.744 392.347 213.896 395.397 202.621L396.591 198.211C398.07 192.741 397.464 187.059 394.883 182.214C392.311 177.385 388.081 173.964 382.975 172.583L361.235 166.7L348.976 212.004ZM375.585 220.053C373.839 220.053 372.074 219.827 370.319 219.352L347.847 213.271C347.442 213.161 347.203 212.745 347.313 212.34L359.969 165.571C360.021 165.377 360.148 165.211 360.323 165.111C360.497 165.011 360.704 164.984 360.899 165.037L383.372 171.118C388.887 172.61 393.45 176.297 396.222 181.5C398.985 186.688 399.636 192.763 398.055 198.607L396.861 203.017C394.098 213.235 385.153 220.053 375.585 220.053Z" fill="#5849BE"/>
<path fill-rule="evenodd" clip-rule="evenodd" d="M259.681 404.447C271.074 407.53 283.23 399.238 286.832 385.928L322.051 255.776C325.652 242.466 319.336 229.176 307.942 226.093C296.549 223.01 284.393 231.301 280.791 244.611L245.572 374.764C241.971 388.074 248.287 401.363 259.681 404.447Z" fill="#5849BE"/>
<path fill-rule="evenodd" clip-rule="evenodd" d="M259.879 403.715C265.167 405.146 270.809 404.078 275.75 400.709C280.73 397.313 284.405 391.993 286.101 385.729L321.318 255.577C323.013 249.314 322.521 242.867 319.935 237.425C317.366 232.021 313.037 228.257 307.743 226.825C302.45 225.393 296.813 226.461 291.872 229.831C286.893 233.227 283.218 238.547 281.522 244.811L246.305 374.962C242.818 387.847 248.907 400.745 259.879 403.715ZM264.547 405.854C262.847 405.854 261.149 405.631 259.481 405.179C247.703 401.992 241.135 388.259 244.841 374.565L280.059 244.413C281.848 237.802 285.739 232.178 291.017 228.578C296.33 224.953 302.409 223.809 308.141 225.36C313.868 226.91 318.544 230.964 321.305 236.773C324.047 242.544 324.572 249.361 322.782 255.975L287.564 386.126C285.775 392.738 281.883 398.362 276.605 401.962C272.838 404.531 268.687 405.854 264.547 405.854Z" fill="#5849BE"/>
<path fill-rule="evenodd" clip-rule="evenodd" d="M277.585 291.099C286.915 293.623 295.7 291.151 297.208 285.578L311.954 231.087C313.462 225.514 307.121 218.95 297.792 216.426C288.462 213.901 279.677 216.372 278.169 221.945L263.424 276.437C261.915 282.01 268.256 288.573 277.585 291.099Z" fill="#5849BE"/>
<path fill-rule="evenodd" clip-rule="evenodd" d="M290.583 216.19C288.688 216.19 286.887 216.42 285.253 216.879C281.814 217.846 279.558 219.716 278.9 222.143L264.156 276.636C263.499 279.062 264.505 281.813 266.986 284.384C269.566 287.056 273.401 289.181 277.783 290.366C286.69 292.778 295.08 290.542 296.476 285.38L311.222 230.889C311.879 228.462 310.873 225.709 308.391 223.14C305.811 220.468 301.976 218.343 297.593 217.157C295.214 216.515 292.834 216.19 290.583 216.19ZM284.719 292.835C282.39 292.835 279.905 292.512 277.387 291.83C272.744 290.574 268.664 288.304 265.895 285.438C263.026 282.469 261.89 279.202 262.692 276.238L277.437 221.746C278.238 218.783 280.867 216.536 284.842 215.418C288.679 214.34 293.349 214.437 297.99 215.693C302.632 216.949 306.714 219.219 309.483 222.086C312.351 225.055 313.487 228.322 312.686 231.286L297.94 285.777C296.744 290.198 291.374 292.835 284.719 292.835Z" fill="#5849BE"/>
<path fill-rule="evenodd" clip-rule="evenodd" d="M279.602 239.287L320.709 250.41C329.317 252.739 338.183 247.65 340.514 239.041L342.993 229.877C345.322 221.269 340.232 212.402 331.624 210.073L290.518 198.95C281.909 196.62 273.042 201.71 270.713 210.319L268.233 219.482C265.903 228.091 270.994 236.957 279.602 239.287Z" fill="white"/>
<path fill-rule="evenodd" clip-rule="evenodd" d="M279.801 238.555L320.907 249.678C324.874 250.751 329.023 250.215 332.588 248.169C336.153 246.122 338.708 242.811 339.781 238.842L342.261 229.679C344.476 221.488 339.615 213.022 331.426 210.806L290.318 199.682C286.352 198.608 282.202 199.144 278.638 201.19C275.073 203.237 272.519 206.549 271.444 210.517L268.965 219.682C267.891 223.648 268.428 227.797 270.475 231.362C272.521 234.926 275.832 237.481 279.801 238.555ZM324.954 251.736C323.472 251.736 321.981 251.54 320.511 251.142L279.403 240.019C275.045 238.839 271.406 236.033 269.157 232.116C266.91 228.201 266.321 223.644 267.501 219.284L269.98 210.121C271.16 205.762 273.967 202.123 277.882 199.875C281.798 197.625 286.356 197.037 290.716 198.217L331.822 209.34C340.82 211.776 346.159 221.077 343.726 230.076L341.246 239.239C340.066 243.598 337.26 247.237 333.344 249.485C330.748 250.975 327.869 251.736 324.954 251.736Z" fill="#5849BE"/>
<path fill-rule="evenodd" clip-rule="evenodd" d="M281.495 223.646L329.371 236.601C336.11 238.425 343.052 234.44 344.875 227.701C346.699 220.962 342.714 214.02 335.975 212.197L288.1 199.242C281.36 197.419 274.419 201.403 272.595 208.143C270.771 214.882 274.757 221.823 281.495 223.646Z" fill="#5849BE"/>
<path fill-rule="evenodd" clip-rule="evenodd" d="M281.694 222.915L329.57 235.869C332.631 236.698 335.836 236.284 338.589 234.704C341.342 233.124 343.314 230.566 344.144 227.502C345.854 221.179 342.102 214.641 335.777 212.93L287.9 199.975C284.836 199.144 281.633 199.559 278.882 201.139C276.129 202.719 274.157 205.277 273.327 208.341C272.498 211.405 272.912 214.607 274.493 217.36C276.072 220.113 278.63 222.085 281.694 222.915ZM332.694 237.805C331.521 237.805 330.338 237.648 329.173 237.334L281.297 224.379C277.843 223.444 274.958 221.22 273.176 218.115C271.396 215.012 270.928 211.4 271.863 207.945C272.798 204.49 275.023 201.605 278.126 199.824C281.23 198.041 284.843 197.575 288.297 198.51L336.174 211.465C343.306 213.395 347.537 220.768 345.607 227.899C344.673 231.354 342.449 234.238 339.345 236.021C337.287 237.201 335.006 237.805 332.694 237.805Z" fill="#5849BE"/>
<path fill-rule="evenodd" clip-rule="evenodd" d="M281.981 219.455L329.219 232.237C352.297 238.482 376.398 223.613 383.052 199.026L385.56 189.757C392.213 165.17 378.897 140.177 355.819 133.932L308.582 121.15L281.981 219.455Z" fill="#FE6470"/>
<path fill-rule="evenodd" clip-rule="evenodd" d="M282.911 218.921L329.417 231.505C340.372 234.471 351.908 232.708 361.895 226.548C371.899 220.377 379.152 210.533 382.32 198.829L384.828 189.559C391.359 165.415 378.258 140.79 355.621 134.665L309.116 122.08L282.911 218.921ZM339.953 234.429C336.297 234.429 332.63 233.946 329.019 232.969L281.782 220.188C281.589 220.135 281.423 220.008 281.323 219.833C281.224 219.659 281.195 219.451 281.249 219.257L307.85 120.952C307.902 120.757 308.03 120.592 308.205 120.492C308.379 120.391 308.586 120.365 308.78 120.417L356.019 133.2C379.462 139.543 393.043 165.005 386.292 189.956L383.784 199.225C380.516 211.303 373.025 221.466 362.693 227.839C355.631 232.196 347.815 234.429 339.953 234.429Z" fill="#5849BE"/>
<mask id="mask0_12_156" style="mask-type:alpha" maskUnits="userSpaceOnUse" x="354" y="180" width="34" height="48">
<path d="M387.173 180.06C386.967 183.27 386.437 186.517 385.56 189.757L383.052 199.026C379.642 211.627 371.648 221.676 361.559 227.638L354.472 187.569" fill="white"/>
</mask>
<g mask="url(#mask0_12_156)">
<path fill-rule="evenodd" clip-rule="evenodd" d="M374.452 233.517L378.178 222.275L367.195 224.797L374.452 233.517Z" fill="white"/>
</g>
<mask id="mask1_12_156" style="mask-type:alpha" maskUnits="userSpaceOnUse" x="302" y="187" width="60" height="47">
<path d="M354.472 187.569L361.559 227.638C351.962 233.308 340.469 235.281 329.219 232.237L307.396 226.332L302.646 199.469" fill="white"/>
</mask>
<g mask="url(#mask1_12_156)">
<path fill-rule="evenodd" clip-rule="evenodd" d="M342.565 201.593L338.838 212.835L349.821 210.313L342.565 201.593Z" fill="white"/>
</g>
<mask id="mask2_12_156" style="mask-type:alpha" maskUnits="userSpaceOnUse" x="281" y="199" width="27" height="28">
<path d="M302.646 199.469L307.396 226.332L281.981 219.455L286.378 203.205" fill="white"/>
</mask>
<g mask="url(#mask2_12_156)">
<path fill-rule="evenodd" clip-rule="evenodd" d="M290.738 213.493L287.012 224.735L297.995 222.213L290.738 213.493Z" fill="white"/>
</g>
<mask id="mask3_12_156" style="mask-type:alpha" maskUnits="userSpaceOnUse" x="344" y="131" width="44" height="57">
<path d="M348.648 131.992L355.819 133.932C375.856 139.354 388.534 158.909 387.173 180.06L354.472 187.569L344.801 132.875" fill="white"/>
</mask>
<g mask="url(#mask3_12_156)">
<path fill-rule="evenodd" clip-rule="evenodd" d="M384.719 134.998L380.993 146.241L391.976 143.719L384.719 134.998Z" fill="white"/>
<path fill-rule="evenodd" clip-rule="evenodd" d="M364.78 178.823L368.506 167.581L357.523 170.103L364.78 178.823Z" fill="white"/>
</g>
<mask id="mask4_12_156" style="mask-type:alpha" maskUnits="userSpaceOnUse" x="296" y="132" width="59" height="68">
<path d="M344.801 132.875L354.472 187.569L302.646 199.469L296.616 165.371L302.8 142.519" fill="white"/>
</mask>
<g mask="url(#mask4_12_156)">
<path fill-rule="evenodd" clip-rule="evenodd" d="M332.893 146.898L329.166 158.141L340.149 155.619L332.893 146.898Z" fill="white"/>
<path fill-rule="evenodd" clip-rule="evenodd" d="M312.954 190.723L316.68 179.481L305.697 182.003L312.954 190.723Z" fill="white"/>
</g>
<mask id="mask5_12_156" style="mask-type:alpha" maskUnits="userSpaceOnUse" x="286" y="165" width="17" height="39">
<path d="M296.616 165.371L302.646 199.469L286.378 203.205" fill="white"/>
</mask>
<g mask="url(#mask5_12_156)">
<path fill-rule="evenodd" clip-rule="evenodd" d="M281.066 158.799L277.34 170.041L288.323 167.519L281.066 158.799Z" fill="white"/>
</g>
<mask id="mask6_12_156" style="mask-type:alpha" maskUnits="userSpaceOnUse" x="302" y="121" width="43" height="22">
<path d="M308.582 121.15L344.444 130.854L344.801 132.875L302.8 142.519" fill="white"/>
</mask>
<g mask="url(#mask6_12_156)">
<path fill-rule="evenodd" clip-rule="evenodd" d="M303.282 136.029L307.008 124.787L296.025 127.309L303.282 136.029Z" fill="white"/>
</g>
<path fill-rule="evenodd" clip-rule="evenodd" d="M282.911 218.921L329.417 231.505C340.372 234.471 351.908 232.708 361.895 226.548C371.899 220.377 379.152 210.533 382.32 198.829L384.828 189.559C391.359 165.415 378.258 140.79 355.621 134.665L309.116 122.08L282.911 218.921ZM339.953 234.429C336.297 234.429 332.63 233.946 329.019 232.969L281.782 220.188C281.589 220.135 281.423 220.008 281.323 219.833C281.224 219.659 281.195 219.451 281.249 219.257L307.85 120.952C307.902 120.757 308.03 120.592 308.205 120.492C308.379 120.391 308.586 120.365 308.78 120.417L356.019 133.2C379.462 139.543 393.043 165.005 386.292 189.956L383.784 199.225C380.516 211.303 373.025 221.466 362.693 227.839C355.631 232.196 347.815 234.429 339.953 234.429Z" fill="#5849BE"/>
<path fill-rule="evenodd" clip-rule="evenodd" d="M308.582 121.15L281.981 219.455C246.402 209.828 208.346 212.768 172.967 227.878L116.852 250.835L182.808 7.73901L218.69 58.904C241.622 89.793 273.003 111.522 308.582 121.15Z" fill="white"/>
<path fill-rule="evenodd" clip-rule="evenodd" d="M183.117 9.49997L117.987 249.552L172.679 227.177C208.144 212.029 245.738 209.04 281.446 218.526L307.652 121.682C272.032 111.867 241.074 90.329 218.081 59.356L183.117 9.49997ZM116.852 251.595C116.671 251.595 116.491 251.529 116.351 251.404C116.134 251.213 116.045 250.916 116.121 250.637L182.076 7.54097C182.153 7.25697 182.388 7.04297 182.678 6.99197C182.969 6.94597 183.261 7.06297 183.43 7.30397L219.313 58.468C242.244 89.359 273.185 110.786 308.78 120.417C308.975 120.47 309.141 120.598 309.24 120.772C309.341 120.947 309.367 121.154 309.314 121.348L282.713 219.653C282.66 219.848 282.533 220.014 282.358 220.113C282.185 220.212 281.977 220.24 281.782 220.188C246.191 210.557 208.664 213.456 173.265 228.576L117.141 251.538C117.048 251.575 116.95 251.595 116.852 251.595Z" fill="#5849BE"/>
<path fill-rule="evenodd" clip-rule="evenodd" d="M308.582 121.15L281.981 219.455C246.402 209.828 208.346 212.768 172.967 227.878L116.852 250.835L182.808 7.73901L218.69 58.904C241.622 89.793 273.003 111.522 308.582 121.15Z" fill="#8472FF"/>
<path fill-rule="evenodd" clip-rule="evenodd" d="M183.117 9.49997L117.987 249.552L172.679 227.177C208.144 212.029 245.738 209.04 281.446 218.526L307.652 121.682C272.032 111.867 241.074 90.329 218.081 59.356L183.117 9.49997ZM116.852 251.595C116.671 251.595 116.491 251.529 116.351 251.404C116.134 251.213 116.045 250.916 116.121 250.637L182.076 7.54097C182.153 7.25697 182.388 7.04297 182.678 6.99197C182.969 6.94597 183.261 7.06297 183.43 7.30397L219.313 58.468C242.244 89.359 273.185 110.786 308.78 120.417C308.975 120.47 309.141 120.598 309.24 120.772C309.341 120.947 309.367 121.154 309.314 121.348L282.713 219.653C282.66 219.848 282.533 220.014 282.358 220.113C282.185 220.212 281.977 220.24 281.782 220.188C246.191 210.557 208.664 213.456 173.265 228.576L117.141 251.538C117.048 251.575 116.95 251.595 116.852 251.595Z" fill="#5849BE"/>
<mask id="mask7_12_156" style="mask-type:alpha" maskUnits="userSpaceOnUse" x="276" y="199" width="12" height="18">
<path d="M287.328 199.694L282.802 216.42L276.598 206.222" fill="white"/>
</mask>
<g mask="url(#mask7_12_156)">
<path fill-rule="evenodd" clip-rule="evenodd" d="M281.103 213.627C281.107 213.625 281.111 213.622 281.116 213.62C281.114 213.621 281.112 213.622 281.11 213.623C281.107 213.625 281.105 213.626 281.103 213.627Z" fill="white"/>
<path fill-rule="evenodd" clip-rule="evenodd" d="M283.476 203.572C282.958 203.572 282.453 203.31 282.164 202.835L284.785 201.241C284.936 201.49 285.008 201.764 285.008 202.036C285.009 202.554 284.747 203.059 284.272 203.348C284.023 203.5 283.747 203.572 283.476 203.572Z" fill="white"/>
<path fill-rule="evenodd" clip-rule="evenodd" d="M277.395 207.532L276.598 206.222L277.915 205.42V205.421C278.355 206.144 278.125 207.088 277.402 207.528C277.399 207.53 277.397 207.531 277.395 207.532Z" fill="white"/>
<path fill-rule="evenodd" clip-rule="evenodd" d="M282.258 215.526L281.103 213.627C281.105 213.626 281.107 213.625 281.11 213.623C281.112 213.622 281.114 213.621 281.116 213.62C281.363 213.471 281.636 213.399 281.906 213.399C282.209 213.399 282.509 213.49 282.763 213.66L282.258 215.526Z" fill="white"/>
<path fill-rule="evenodd" clip-rule="evenodd" d="M282.698 216.248L282.258 215.526L282.763 213.66C282.942 213.78 283.098 213.94 283.217 214.136C283.271 214.223 283.314 214.314 283.348 214.406L282.885 216.116C282.829 216.162 282.768 216.205 282.704 216.244C282.702 216.245 282.7 216.247 282.698 216.248Z" fill="#5849BE"/>
</g>
<mask id="mask8_12_156" style="mask-type:alpha" maskUnits="userSpaceOnUse" x="287" y="154" width="13" height="20">
<path d="M299.531 154.599L294.399 173.564L287.364 162.001" fill="white"/>
</mask>
<g mask="url(#mask8_12_156)">
<path fill-rule="evenodd" clip-rule="evenodd" d="M291.87 169.407C291.87 169.406 291.87 169.406 291.871 169.406C291.87 169.406 291.87 169.406 291.87 169.407Z" fill="white"/>
<path fill-rule="evenodd" clip-rule="evenodd" d="M293.464 172.027L291.87 169.407C291.87 169.406 291.87 169.406 291.871 169.406C291.873 169.405 291.874 169.404 291.876 169.403C292.125 169.251 292.401 169.179 292.672 169.179C293.19 169.179 293.695 169.441 293.984 169.916C294.424 170.639 294.195 171.583 293.471 172.023C293.469 172.025 293.467 172.026 293.464 172.027Z" fill="white"/>
</g>
<mask id="mask9_12_156" style="mask-type:alpha" maskUnits="userSpaceOnUse" x="116" y="218" width="30" height="33">
<path d="M133.168 218.142L145.842 238.975L116.852 250.835L124.25 223.568" fill="white"/>
</mask>
<g mask="url(#mask9_12_156)">
<path fill-rule="evenodd" clip-rule="evenodd" d="M136.467 241.991C136.362 241.776 136.311 241.546 136.311 241.318C136.31 240.8 136.573 240.295 137.048 240.006C137.297 239.854 137.572 239.782 137.843 239.782C138.361 239.782 138.867 240.044 139.155 240.519C139.217 240.62 139.265 240.725 139.301 240.832L136.467 241.991Z" fill="white"/>
<path fill-rule="evenodd" clip-rule="evenodd" d="M136.996 242.594C136.814 242.473 136.655 242.312 136.534 242.113C136.51 242.073 136.488 242.033 136.467 241.991L139.301 240.832C139.353 240.99 139.379 241.152 139.379 241.314C139.379 241.421 139.368 241.528 139.346 241.633L136.996 242.594Z" fill="#5849BE"/>
<path fill-rule="evenodd" clip-rule="evenodd" d="M129.609 244.797C129.734 244.553 129.926 244.339 130.177 244.185C130.426 244.034 130.701 243.962 130.973 243.962C131.138 243.962 131.303 243.988 131.459 244.04L129.609 244.797Z" fill="white"/>
<path fill-rule="evenodd" clip-rule="evenodd" d="M129.452 245.68C129.444 245.62 129.441 245.559 129.441 245.498C129.44 245.255 129.498 245.014 129.609 244.797L131.459 244.04C131.742 244.134 131.999 244.311 132.19 244.56L129.452 245.68Z" fill="#5849BE"/>
</g>
<mask id="mask10_12_156" style="mask-type:alpha" maskUnits="userSpaceOnUse" x="176" y="28" width="40" height="41">
<path d="M197.32 28.431L215.837 54.836L192.962 68.753L176.235 41.259" fill="white"/>
</mask>
<g mask="url(#mask10_12_156)">
<path fill-rule="evenodd" clip-rule="evenodd" d="M196.854 30.25C196.336 30.25 195.831 29.988 195.542 29.514L196.671 28.826L197.551 30.082C197.329 30.196 197.09 30.25 196.854 30.25Z" fill="white"/>
<path fill-rule="evenodd" clip-rule="evenodd" d="M197.551 30.082L196.671 28.826L197.32 28.431L198.123 29.576C198.003 29.753 197.844 29.908 197.65 30.027C197.617 30.046 197.584 30.065 197.551 30.082Z" fill="#5849BE"/>
</g>
<mask id="mask11_12_156" style="mask-type:alpha" maskUnits="userSpaceOnUse" x="174" y="7" width="24" height="35">
<path d="M182.808 7.73901L197.32 28.431L176.235 41.259L174.491 38.393" fill="white"/>
</mask>
<g mask="url(#mask11_12_156)">
<path fill-rule="evenodd" clip-rule="evenodd" d="M195.542 29.514C195.39 29.265 195.318 28.99 195.318 28.719C195.318 28.299 195.489 27.888 195.806 27.594L196.671 28.826L195.542 29.513" fill="white"/>
<path fill-rule="evenodd" clip-rule="evenodd" d="M196.671 28.826L195.806 27.594C195.881 27.524 195.964 27.461 196.055 27.406C196.189 27.324 196.331 27.265 196.477 27.229L197.32 28.431L196.671 28.826Z" fill="#5849BE"/>
<path fill-rule="evenodd" clip-rule="evenodd" d="M191.68 21.747C191.676 21.747 191.672 21.747 191.667 21.747C191.657 21.713 191.645 21.678 191.634 21.645L191.706 21.746C191.697 21.747 191.688 21.747 191.68 21.747Z" fill="white"/>
<path fill-rule="evenodd" clip-rule="evenodd" d="M191.706 21.746L191.634 21.645C191.341 20.745 191.034 19.869 190.714 19.02C190.715 19.019 190.716 19.018 190.718 19.017L192.475 21.523C192.234 21.67 191.969 21.742 191.706 21.746Z" fill="#5849BE"/>
</g>
<path fill-rule="evenodd" clip-rule="evenodd" d="M95.6219 114.893C76.4809 183.875 80.6699 245.064 104.978 251.561C129.287 258.059 164.511 207.405 183.652 138.423C202.794 69.441 198.606 8.25302 174.297 1.75502C149.987 -4.74198 114.764 45.911 95.6219 114.893Z" fill="#5849BE"/>
<path fill-rule="evenodd" clip-rule="evenodd" d="M169.902 1.94399C146.293 1.94399 114.267 50.54 96.353 115.096C81.711 167.865 80.359 218.16 92.99 240.247C96.271 245.983 100.37 249.543 105.175 250.828C106.539 251.192 107.942 251.371 109.373 251.371C132.981 251.377 165.006 202.78 182.921 138.22C197.564 85.451 198.916 35.157 186.286 13.07C183.004 7.33299 178.904 3.77199 174.101 2.48799C172.735 2.12399 171.334 1.94399 169.902 1.94399ZM109.323 252.883C107.77 252.883 106.255 252.686 104.783 252.294C99.5719 250.9 95.161 247.102 91.673 240.999C78.854 218.584 80.149 167.824 94.892 114.69C104.172 81.248 117.491 51.024 132.399 29.586C147.454 7.93599 162.403 -2.20801 174.492 1.02199C179.703 2.41499 184.113 6.21499 187.602 12.316C200.421 34.732 199.127 85.492 184.383 138.626C175.104 172.068 161.783 202.292 146.876 223.73C133.654 242.743 120.514 252.883 109.323 252.883Z" fill="#5849BE"/>
<path fill-rule="evenodd" clip-rule="evenodd" d="M111.095 117.27C96.182 171.498 97.778 219.129 114.661 223.657C131.544 228.186 157.32 187.896 172.234 133.669C187.148 79.44 185.552 31.808 168.668 27.28C151.785 22.752 126.009 63.041 111.095 117.27Z" fill="white"/>
<mask id="mask12_12_156" style="mask-type:alpha" maskUnits="userSpaceOnUse" x="100" y="26" width="83" height="199">
<path d="M111.095 117.27C96.182 171.498 97.778 219.129 114.661 223.657C131.544 228.186 157.32 187.896 172.234 133.669C187.148 79.44 185.552 31.808 168.668 27.28C151.785 22.752 126.009 63.041 111.095 117.27Z" fill="white"/>
</mask>
<g mask="url(#mask12_12_156)">
<path fill-rule="evenodd" clip-rule="evenodd" d="M200.551 116.795L168.594 108.333C155.542 104.877 141.438 114.913 137.091 130.747V130.748C132.744 146.582 139.801 162.22 152.854 165.676L184.81 174.138L200.551 116.795Z" fill="#FE6470"/>
<path fill-rule="evenodd" clip-rule="evenodd" d="M163.363 108.413C152.312 108.413 141.494 117.573 137.822 130.948C135.513 139.362 136.415 148.061 140.299 154.813C143.256 159.952 147.783 163.549 153.047 164.943L184.277 173.212L199.616 117.332L168.399 109.067C166.733 108.625 165.045 108.413 163.363 108.413ZM184.81 174.896L184.615 174.871L152.658 166.41C147 164.912 142.144 161.061 138.984 155.569C134.899 148.469 133.943 139.349 136.358 130.546C140.81 114.337 155.354 104.045 168.789 107.6L200.745 116.061C200.94 116.113 201.107 116.241 201.209 116.417C201.31 116.592 201.336 116.8 201.282 116.996L185.542 174.338C185.449 174.675 185.144 174.896 184.81 174.896Z" fill="#5849BE"/>
<path fill-rule="evenodd" clip-rule="evenodd" d="M144.711 136.462C146.07 130.369 144.845 124.344 141.936 120.766C139.245 123.414 137.09 127.352 136.032 132.094C134.764 137.78 135.339 143.423 137.27 147.713C140.649 145.882 143.522 141.789 144.711 136.462Z" fill="#FE6470"/>
<path fill-rule="evenodd" clip-rule="evenodd" d="M141.863 121.934C139.479 124.549 137.683 128.179 136.773 132.259C135.659 137.253 135.976 142.43 137.63 146.614C140.611 144.65 142.952 140.864 143.971 136.296C145.149 131.015 144.319 125.494 141.863 121.934ZM137.271 148.472L137.027 148.432C136.827 148.364 136.665 148.217 136.578 148.024C134.506 143.42 134.037 137.554 135.291 131.929C136.341 127.229 138.511 123.073 141.403 120.225C141.556 120.075 141.771 120.002 141.978 120.008C142.19 120.02 142.39 120.121 142.524 120.287C145.705 124.2 146.828 130.461 145.452 136.626C144.258 141.979 141.334 146.373 137.632 148.379C137.52 148.44 137.396 148.472 137.271 148.472Z" fill="#5849BE"/>
</g>
<path fill-rule="evenodd" clip-rule="evenodd" d="M111.095 117.27L110.372 117.071C103.505 142.044 100.127 165.62 100.126 184.299C100.128 195.288 101.291 204.58 103.636 211.502C104.81 214.963 106.281 217.835 108.077 220.026C109.872 222.215 112.011 223.724 114.467 224.382C115.4 224.632 116.359 224.754 117.334 224.754C121.842 224.744 126.628 222.186 131.532 217.675C138.887 210.894 146.562 199.615 153.756 185.191C160.946 170.768 167.64 153.2 172.958 133.867C179.825 108.894 183.203 85.317 183.204 66.638C183.202 55.649 182.038 46.357 179.693 39.435C178.519 35.974 177.049 33.102 175.252 30.911C173.458 28.722 171.318 27.213 168.862 26.555C167.929 26.305 166.97 26.182 165.995 26.182C161.487 26.193 156.701 28.751 151.797 33.262C144.442 40.043 136.767 51.322 129.573 65.746C122.383 80.17 115.689 97.737 110.372 117.071L111.095 117.27L111.818 117.468C118.874 91.807 128.373 69.275 138.178 53.202C143.078 45.166 148.057 38.745 152.813 34.366C157.57 29.977 162.087 27.672 165.995 27.682C166.845 27.683 167.67 27.789 168.474 28.004C170.581 28.571 172.446 29.86 174.092 31.862C176.559 34.863 178.483 39.473 179.765 45.379C181.05 51.284 181.704 58.477 181.704 66.638C181.705 85.139 178.349 108.61 171.511 133.47C164.455 159.131 154.955 181.662 145.151 197.736C140.251 205.772 135.271 212.192 130.516 216.571C125.759 220.96 121.242 223.264 117.334 223.254C116.484 223.254 115.659 223.148 114.855 222.933C112.748 222.366 110.883 221.077 109.237 219.074C106.77 216.074 104.846 211.464 103.564 205.558C102.279 199.653 101.625 192.46 101.626 184.299C101.625 165.798 104.981 142.328 111.818 117.468L111.095 117.27Z" fill="white"/>
<path fill-rule="evenodd" clip-rule="evenodd" d="M298.208 118.024L272.048 217.053L281.936 219.13L308.582 121.15L298.208 118.024Z" fill="white"/>
<path fill-rule="evenodd" clip-rule="evenodd" d="M228.362 298.112C230.458 298.861 232.45 299.868 234.374 300.984L271.274 322.392C280.452 327.717 283.08 340.524 275.681 348.131C270.581 353.372 262.323 354.782 249.02 350.615L214.771 334.153C204.596 329.263 198.336 318.165 200.657 307.117C202.528 298.209 209.252 291.276 228.362 298.112Z" fill="#FA9199"/>
<path fill-rule="evenodd" clip-rule="evenodd" d="M249.298 349.908C261.473 353.709 269.926 352.958 275.138 347.602C278.269 344.384 279.698 339.882 279.061 335.25C278.362 330.172 275.309 325.609 270.895 323.047L233.993 301.641C231.82 300.38 229.95 299.485 228.107 298.826C219.055 295.588 212.148 295.241 207.58 297.799C204.429 299.561 202.35 302.749 201.4 307.273C199.23 317.595 204.992 328.612 215.1 333.47L249.298 349.908ZM262.628 353.804C258.634 353.804 254.034 352.981 248.792 351.34L248.69 351.299L214.441 334.836C203.714 329.681 197.604 317.957 199.914 306.961C200.959 301.989 203.289 298.46 206.839 296.474C211.808 293.695 219.134 294.004 228.618 297.397C230.523 298.079 232.53 299.038 234.754 300.328L271.655 321.735C276.472 324.53 279.803 329.506 280.564 335.044C281.266 340.142 279.685 345.104 276.226 348.659C272.885 352.093 268.387 353.804 262.628 353.804Z" fill="#FE6470"/>
<path fill-rule="evenodd" clip-rule="evenodd" d="M244.635 267.243C246.729 267.992 248.723 268.999 250.646 270.116L287.547 291.523C296.724 296.849 299.353 309.656 291.953 317.263C286.854 322.504 278.595 323.913 265.291 319.746L231.042 303.285C220.868 298.395 214.607 287.296 216.929 276.249C218.8 267.34 225.525 260.408 244.635 267.243Z" fill="#FA9199"/>
<path fill-rule="evenodd" clip-rule="evenodd" d="M265.569 319.039C277.75 322.843 286.2 322.089 291.41 316.732C294.541 313.515 295.97 309.013 295.333 304.382C294.635 299.303 291.581 294.741 287.166 292.18L250.267 270.771C248.127 269.53 246.201 268.609 244.379 267.957C235.326 264.718 228.418 264.375 223.853 266.931C220.701 268.694 218.621 271.882 217.672 276.405C215.503 286.726 221.264 297.743 231.371 302.602L265.569 319.039ZM278.9 322.936C274.908 322.936 270.308 322.112 265.064 320.471L264.962 320.431L230.713 303.969C219.985 298.813 213.876 287.088 216.187 276.093C217.23 271.122 219.56 267.594 223.11 265.607C228.079 262.826 235.406 263.139 244.891 266.529C246.8 267.212 248.808 268.172 251.028 269.46L287.927 290.868C292.743 293.662 296.073 298.637 296.836 304.175C297.538 309.272 295.956 314.235 292.498 317.791C289.157 321.224 284.66 322.936 278.9 322.936Z" fill="#FE6470"/>
<path fill-rule="evenodd" clip-rule="evenodd" d="M260.077 234.013C262.119 234.817 264.048 235.86 265.905 237.004L301.496 258.945C310.35 264.402 312.362 276.668 304.674 283.556C299.377 288.301 291.123 289.271 278.126 284.73L244.933 267.599C235.072 262.51 229.379 251.705 232.191 241.328C234.46 232.962 241.447 226.683 260.077 234.013Z" fill="#FA9199"/>
<path fill-rule="evenodd" clip-rule="evenodd" d="M278.437 284.072C290.334 288.219 298.746 287.879 304.159 283.029C307.413 280.114 309.039 275.907 308.621 271.486C308.164 266.638 305.348 262.177 301.089 259.552L265.497 237.61C263.4 236.317 261.586 235.387 259.791 234.679C250.967 231.207 244.135 230.575 239.488 232.795C236.282 234.328 234.072 237.26 232.92 241.509C230.293 251.204 235.495 261.909 245.291 266.965L278.437 284.072ZM292.753 288.388C288.497 288.388 283.552 287.393 277.868 285.407L277.769 285.365L244.575 268.232C234.179 262.867 228.663 251.476 231.463 241.147C232.729 236.478 235.203 233.233 238.815 231.507C243.868 229.092 251.119 229.708 260.363 233.347C262.246 234.088 264.137 235.057 266.313 236.398L301.904 258.34C306.55 261.204 309.622 266.069 310.122 271.355C310.581 276.224 308.783 280.861 305.188 284.081C301.982 286.953 297.865 288.388 292.753 288.388Z" fill="#FE6470"/>
<path fill-rule="evenodd" clip-rule="evenodd" d="M298.438 372.514C298.438 372.514 285.442 320.19 340.36 320.055C349.292 320.033 274.314 315.096 272.694 291.111C271.073 267.126 311.427 269.475 352.259 275.789" fill="#FA9199"/>
<path fill-rule="evenodd" clip-rule="evenodd" d="M298.437 373.272C298.097 373.272 297.787 373.042 297.702 372.696C297.644 372.463 292.049 349.189 304.257 333.538C310.543 325.48 320.353 320.809 333.477 319.607C293.511 313.644 272.811 304.079 271.938 291.162C271.582 285.897 273.186 281.591 276.706 278.36C289.125 266.968 323.669 270.601 352.375 275.039C352.79 275.104 353.073 275.49 353.009 275.904C352.945 276.319 352.547 276.603 352.144 276.539C325.982 272.493 289.807 268.396 277.732 279.479C274.523 282.423 273.123 286.211 273.451 291.06C274.297 303.584 295.908 312.877 337.682 318.68C341.909 319.268 341.909 319.268 341.856 320.054C341.805 320.81 341.071 320.812 340.362 320.813C324.24 320.854 312.498 325.445 305.459 334.464C293.703 349.526 299.118 372.104 299.174 372.331C299.274 372.737 299.026 373.148 298.62 373.249L298.437 373.272Z" fill="#FE6470"/>
</svg>
